<svg width="884" height="175" viewBox="0 0 884 175" fill="none" xmlns="http://www.w3.org/2000/svg">
<g opacity="0.02">
<path d="M67.0078 79.7656C63.0703 78.6406 58.2891 78.0078 52.6641 77.8672C47.6016 77.8672 42.5391 78.5 37.4766 79.7656C32.5547 80.8906 28.6172 82.8594 25.6641 85.6719L25.6641 130.812L25.6641 131.234L25.6641 173H0.140625L0.140625 54.0313L22.9219 54.0313L25.6641 66.2656C27.7734 64.1563 29.9531 62.2578 32.2031 60.5703C34.5937 58.8828 37.3359 57.5469 40.4297 56.5625C43.5234 55.4375 47.1797 54.5938 51.3984 54.0313C55.6172 53.4688 60.8203 53.1875 67.0078 53.1875V79.7656ZM93.375 58.25V54.0313L119.109 54.0313L119.109 118.789C119.109 123.711 119.32 128.352 119.742 132.711C120.164 136.93 121.078 140.656 122.484 143.891C123.891 147.125 126 149.727 128.812 151.695C131.625 153.664 135.352 154.648 139.992 154.648C141.398 154.648 143.367 154.508 145.898 154.227C148.43 153.805 150.961 153.172 153.492 152.328C156.164 151.484 158.625 150.43 160.875 149.164C163.266 147.898 165.023 146.422 166.148 144.734V143.258V143.047V95.7969V95.5859L166.148 54.0313L191.883 54.0313L191.883 173H168.891L166.148 160.766C164.461 162.313 162.352 163.859 159.82 165.406C157.289 166.953 154.477 168.43 151.383 169.836C148.43 171.102 145.336 172.156 142.102 173C139.008 173.703 135.914 174.055 132.82 174.055C129.445 174.055 126.422 173.703 123.75 173C121.078 172.438 118.547 171.523 116.156 170.258C113.906 168.852 111.727 167.305 109.617 165.617C107.508 163.93 105.398 162.031 103.289 159.922C100.898 157.531 99 154.789 97.5937 151.695C96.1875 148.461 95.1328 145.156 94.4297 141.781C93.8672 138.266 93.5156 134.75 93.375 131.234C93.375 127.719 93.375 124.273 93.375 120.898L93.375 58.0391V58.25ZM225.422 163.508L236.18 146.422C238.992 148.391 242.297 150.219 246.094 151.906C250.031 153.594 254.953 154.438 260.859 154.438C268.594 154.438 274.641 153.242 279 150.852C283.359 148.461 285.539 144.945 285.539 140.305C285.539 136.93 284.273 134.258 281.742 132.289C279.211 130.18 275.977 128.422 272.039 127.016C268.242 125.469 264.094 124.063 259.594 122.797C255.234 121.391 251.156 119.703 247.359 117.734C239.906 113.797 234.281 109.648 230.484 105.289C226.828 100.93 225 95.1641 225 87.9922C225 82.0859 226.195 76.8828 228.586 72.3828C231.117 67.8828 234.352 64.1563 238.289 61.2031C242.227 58.1094 246.727 55.7891 251.789 54.2422C256.852 52.6953 261.984 51.9219 267.188 51.9219C274.219 51.9219 280.688 52.6953 286.594 54.2422C292.5 55.6484 298.195 58.1094 303.68 61.625L295.453 79.1328C291.234 76.7422 286.664 75.125 281.742 74.2813C276.82 73.2969 271.969 72.8047 267.188 72.8047C261.984 72.8047 257.836 74 254.742 76.3906C251.789 78.6406 250.312 82.2266 250.312 87.1484C250.312 90.9453 251.648 93.9688 254.32 96.2188C257.133 98.3281 260.719 100.227 265.078 101.914C269.438 103.602 274.078 105.289 279 106.977C283.922 108.664 288.492 110.844 292.711 113.516C297.07 116.047 300.656 119.281 303.469 123.219C306.281 127.156 307.687 132.219 307.687 138.406C307.687 144.453 306.492 149.727 304.102 154.227C301.711 158.727 298.477 162.453 294.398 165.406C290.32 168.359 285.609 170.539 280.266 171.945C274.922 173.352 269.227 174.055 263.18 174.055C259.523 174.055 256.148 173.914 253.055 173.633C249.961 173.492 246.937 173.07 243.984 172.367C241.031 171.664 238.078 170.609 235.125 169.203C232.172 167.797 228.937 165.898 225.422 163.508ZM439.312 173L413.578 173L413.578 108.242C413.578 103.461 413.367 98.8906 412.945 94.5313C412.523 90.1719 411.539 86.3047 409.992 82.9297C408.445 79.5547 406.336 76.9531 403.664 75.125C400.992 73.1563 397.266 72.1719 392.484 72.1719C390.938 72.1719 388.898 72.3828 386.367 72.8047C383.977 73.2266 381.445 73.8594 378.773 74.7031C376.242 75.5469 373.781 76.6016 371.391 77.8672C369.141 79.1328 367.453 80.6094 366.328 82.2969V83.5625V83.9844L366.328 130.813V131.234V173H340.805L340.805 9.10156L366.328 9.10156V66.0547C368.016 64.5078 370.125 62.9609 372.656 61.4141C375.328 59.7266 378.211 58.25 381.305 56.9844C384.398 55.7188 387.562 54.7344 390.797 54.0313C394.031 53.1875 397.195 52.7656 400.289 52.7656C406.617 52.7656 411.961 54.1016 416.32 56.7734C420.68 59.4453 425.039 62.8906 429.398 67.1094C431.789 69.5 433.617 72.3125 434.883 75.5469C436.289 78.6406 437.273 81.9453 437.836 85.4609C438.539 88.8359 438.961 92.2813 439.102 95.7969C439.242 99.3125 439.312 102.758 439.312 106.133L439.312 168.781V173Z" fill="white"/>
<path d="M494.578 136.719C494.578 141.5 495.211 145.297 496.477 148.109C497.742 150.781 499.5 152.82 501.75 154.227C504 155.492 506.531 156.336 509.344 156.758C512.297 157.18 515.461 157.391 518.836 157.391V173C517.008 173.281 515.109 173.492 513.141 173.633C511.594 173.773 509.766 173.844 507.656 173.844C505.547 173.984 503.438 174.055 501.328 174.055C499.219 174.055 497.109 173.984 495 173.844C492.891 173.703 490.992 173.492 489.305 173.211C484.523 172.227 480.797 170.117 478.125 166.883C475.453 163.648 473.414 160.063 472.008 156.125C470.602 152.047 469.687 148.109 469.266 144.313C468.984 140.516 468.844 137.563 468.844 135.453V132.922L468.844 9.10156L494.578 9.10156V136.719ZM571.359 173H545.625V54.0313L571.359 54.0313V173ZM573.68 16.0625C573.68 20.2813 572.203 23.8672 569.25 26.8203C566.297 29.6328 562.711 31.0391 558.492 31.0391C554.273 31.0391 550.688 29.5625 547.734 26.6094C544.922 23.6563 543.516 20.1406 543.516 16.0625C543.516 11.8438 544.992 8.25781 547.945 5.30469C550.898 2.35156 554.414 0.875 558.492 0.875C562.711 0.875 566.297 2.35156 569.25 5.30469C572.203 8.25781 573.68 11.8438 573.68 16.0625ZM705.727 173H679.992V108.242C679.992 103.461 679.781 98.8906 679.359 94.5313C678.938 90.1719 677.953 86.3047 676.406 82.9297C674.859 79.5547 672.75 76.9531 670.078 75.125C667.406 73.1563 663.68 72.1719 658.898 72.1719C657.352 72.1719 655.312 72.3828 652.781 72.8047C650.391 73.2266 647.859 73.8594 645.188 74.7031C642.656 75.5469 640.195 76.6016 637.805 77.8672C635.555 79.1328 633.867 80.6094 632.742 82.2969V83.5625V83.9844V130.813V131.234V173H607.219V54.0313L630 54.0313L632.742 66.0547C634.43 64.5078 636.539 62.9609 639.07 61.4141C641.742 59.7266 644.625 58.25 647.719 56.9844C650.812 55.7188 653.977 54.7344 657.211 54.0313C660.445 53.1875 663.609 52.7656 666.703 52.7656C673.031 52.7656 678.375 54.1016 682.734 56.7734C687.094 59.4453 691.453 62.8906 695.812 67.1094C698.203 69.5 700.031 72.3125 701.297 75.5469C702.703 78.6406 703.688 81.9453 704.25 85.4609C704.953 88.8359 705.375 92.2813 705.516 95.7969C705.656 99.3125 705.727 102.758 705.727 106.133V168.781V173ZM809.93 173L766.688 116.047V173H740.953V9.10156L766.688 9.10156V110.773L804.867 54.0313L833.555 54.0313L791.789 113.305L839.039 173L809.93 173ZM883.969 158.656C883.969 162.875 882.492 166.461 879.539 169.414C876.586 172.367 873 173.844 868.781 173.844C864.562 173.844 860.977 172.367 858.023 169.414C855.211 166.461 853.805 162.875 853.805 158.656C853.805 154.438 855.281 150.922 858.234 148.109C861.188 145.156 864.703 143.68 868.781 143.68C873 143.68 876.586 145.156 879.539 148.109C882.492 150.922 883.969 154.438 883.969 158.656Z" fill="#C1C1C1"/>
</g>
</svg>
