<svg width="25" height="24" viewBox="0 0 25 24" fill="none" xmlns="http://www.w3.org/2000/svg">
<path d="M12.2241 24C9.04152 24 5.98928 22.7357 3.73884 20.4853C1.4884 18.2348 0.224121 15.1826 0.224121 12C0.224121 8.8174 1.4884 5.76516 3.73884 3.51472C5.98928 1.26428 9.04152 0 12.2241 0C15.4067 0 18.459 1.26428 20.7094 3.51472C22.9598 5.76516 24.2241 8.8174 24.2241 12C24.2241 15.1826 22.9598 18.2348 20.7094 20.4853C18.459 22.7357 15.4067 24 12.2241 24ZM8.02412 10.8C8.50151 10.8 8.95935 10.6104 9.29691 10.2728C9.63448 9.93523 9.82412 9.47739 9.82412 9C9.82412 8.52261 9.63448 8.06477 9.29691 7.72721C8.95935 7.38964 8.50151 7.2 8.02412 7.2C7.54673 7.2 7.08889 7.38964 6.75133 7.72721C6.41376 8.06477 6.22412 8.52261 6.22412 9C6.22412 9.47739 6.41376 9.93523 6.75133 10.2728C7.08889 10.6104 7.54673 10.8 8.02412 10.8ZM16.4241 10.8C16.9015 10.8 17.3593 10.6104 17.6969 10.2728C18.0345 9.93523 18.2241 9.47739 18.2241 9C18.2241 8.52261 18.0345 8.06477 17.6969 7.72721C17.3593 7.38964 16.9015 7.2 16.4241 7.2C15.9467 7.2 15.4889 7.38964 15.1513 7.72721C14.8138 8.06477 14.6241 8.52261 14.6241 9C14.6241 9.47739 14.8138 9.93523 15.1513 10.2728C15.4889 10.6104 15.9467 10.8 16.4241 10.8ZM19.0161 18C18.5214 16.5936 17.6023 15.3755 16.3857 14.5138C15.1691 13.6521 13.715 13.1893 12.2241 13.1893C10.7333 13.1893 9.27917 13.6521 8.06257 14.5138C6.84597 15.3755 5.92686 16.5936 5.43212 18H19.0161Z" fill="#FF5757"/>
<path d="M5.02412 19.8C5.02412 19.0515 5.21035 18.3103 5.57219 17.6187C5.93402 16.9272 6.46437 16.2988 7.13295 15.7695C7.80153 15.2402 8.59526 14.8203 9.4688 14.5339C10.3423 14.2474 11.2786 14.1 12.2241 14.1C13.1696 14.1 14.1059 14.2474 14.9794 14.5339C15.853 14.8203 16.6467 15.2402 17.3153 15.7695C17.9839 16.2988 18.5142 16.9271 18.8761 17.6187C19.2379 18.3103 19.4241 19.0515 19.4241 19.8L5.02412 19.8Z" fill="#FF5757"/>
</svg>
