<svg width="15" height="15" viewBox="0 0 15 15" fill="none" xmlns="http://www.w3.org/2000/svg">
<path d="M7.33446 15C5.4249 15 3.59355 14.2415 2.24329 12.8912C0.89303 11.5409 0.13446 9.70959 0.13446 7.80004C0.13446 5.89048 0.89303 4.05913 2.24329 2.70887C3.59355 1.35861 5.4249 0.600037 7.33446 0.600037C9.24402 0.600037 11.0754 1.35861 12.4256 2.70887C13.7759 4.05913 14.5345 5.89048 14.5345 7.80004C14.5345 9.70959 13.7759 11.5409 12.4256 12.8912C11.0754 14.2415 9.24402 15 7.33446 15ZM4.81446 7.08004C5.10089 7.08004 5.3756 6.96625 5.57814 6.76371C5.78067 6.56117 5.89446 6.28647 5.89446 6.00004C5.89446 5.7136 5.78067 5.4389 5.57814 5.23636C5.3756 5.03382 5.10089 4.92004 4.81446 4.92004C4.52803 4.92004 4.25332 5.03382 4.05078 5.23636C3.84825 5.4389 3.73446 5.7136 3.73446 6.00004C3.73446 6.28647 3.84825 6.56117 4.05078 6.76371C4.25332 6.96625 4.52803 7.08004 4.81446 7.08004ZM9.85446 7.08004C10.1409 7.08004 10.4156 6.96625 10.6181 6.76371C10.8207 6.56117 10.9345 6.28647 10.9345 6.00004C10.9345 5.7136 10.8207 5.4389 10.6181 5.23636C10.4156 5.03382 10.1409 4.92004 9.85446 4.92004C9.56803 4.92004 9.29332 5.03382 9.09079 5.23636C8.88825 5.4389 8.77446 5.7136 8.77446 6.00004C8.77446 6.28647 8.88825 6.56117 9.09079 6.76371C9.29332 6.96625 9.56803 7.08004 9.85446 7.08004ZM11.4097 11.4C11.1128 10.5562 10.5614 9.82534 9.83139 9.30832C9.10143 8.79129 8.22897 8.51361 7.33446 8.51361C6.43995 8.51361 5.56749 8.79129 4.83753 9.30832C4.10757 9.82534 3.5561 10.5562 3.25926 11.4H11.4097Z" fill="#FF5757"/>
<path d="M3.01446 12.48C3.01446 12.0309 3.1262 11.5862 3.3433 11.1713C3.5604 10.7563 3.87861 10.3793 4.27976 10.0617C4.68091 9.74416 5.15714 9.49224 5.68127 9.32037C6.20539 9.1485 6.76715 9.06004 7.33446 9.06004C7.90177 9.06004 8.46352 9.1485 8.98765 9.32037C9.51178 9.49224 9.98801 9.74415 10.3892 10.0617C10.7903 10.3793 11.1085 10.7563 11.3256 11.1713C11.5427 11.5862 11.6545 12.0309 11.6545 12.48L3.01446 12.48Z" fill="#FF5757"/>
</svg>
