<svg width="295" height="295" viewBox="0 0 295 295" fill="none" xmlns="http://www.w3.org/2000/svg">
<path d="M8.42857 4.21429C8.42857 6.54177 6.54177 8.42857 4.21429 8.42857C1.8868 8.42857 0 6.54177 0 4.21429C0 1.8868 1.8868 0 4.21429 0C6.54177 0 8.42857 1.8868 8.42857 4.21429Z" fill="#FF5757" fill-opacity="0.19"/>
<path d="M8.42857 51.9762C8.42857 54.3037 6.54177 56.1905 4.21429 56.1905C1.8868 56.1905 0 54.3037 0 51.9762C0 49.6487 1.8868 47.7619 4.21429 47.7619C6.54177 47.7619 8.42857 49.6487 8.42857 51.9762Z" fill="#FF5757" fill-opacity="0.19"/>
<path d="M8.42857 99.7381C8.42857 102.066 6.54177 103.952 4.21429 103.952C1.8868 103.952 0 102.066 0 99.7381C0 97.4106 1.8868 95.5238 4.21429 95.5238C6.54177 95.5238 8.42857 97.4106 8.42857 99.7381Z" fill="#FF5757" fill-opacity="0.19"/>
<path d="M8.42857 147.5C8.42857 149.827 6.54177 151.714 4.21429 151.714C1.8868 151.714 0 149.827 0 147.5C0 145.173 1.8868 143.286 4.21429 143.286C6.54177 143.286 8.42857 145.173 8.42857 147.5Z" fill="#FF5757" fill-opacity="0.19"/>
<path d="M8.42857 195.262C8.42857 197.589 6.54177 199.476 4.21429 199.476C1.8868 199.476 0 197.589 0 195.262C0 192.934 1.8868 191.048 4.21429 191.048C6.54177 191.048 8.42857 192.934 8.42857 195.262Z" fill="#FF5757" fill-opacity="0.19"/>
<path d="M8.42857 243.024C8.42857 245.351 6.54177 247.238 4.21429 247.238C1.8868 247.238 0 245.351 0 243.024C0 240.696 1.8868 238.81 4.21429 238.81C6.54177 238.81 8.42857 240.696 8.42857 243.024Z" fill="#FF5757" fill-opacity="0.19"/>
<path d="M8.42857 290.786C8.42857 293.113 6.54177 295 4.21429 295C1.8868 295 0 293.113 0 290.786C0 288.458 1.8868 286.571 4.21429 286.571C6.54177 286.571 8.42857 288.458 8.42857 290.786Z" fill="#FF5757" fill-opacity="0.19"/>
<path d="M56.1905 4.21429C56.1905 6.54177 54.3037 8.42857 51.9762 8.42857C49.6487 8.42857 47.7619 6.54177 47.7619 4.21429C47.7619 1.8868 49.6487 0 51.9762 0C54.3037 0 56.1905 1.8868 56.1905 4.21429Z" fill="#FF5757" fill-opacity="0.19"/>
<path d="M56.1905 51.9762C56.1905 54.3037 54.3037 56.1905 51.9762 56.1905C49.6487 56.1905 47.7619 54.3037 47.7619 51.9762C47.7619 49.6487 49.6487 47.7619 51.9762 47.7619C54.3037 47.7619 56.1905 49.6487 56.1905 51.9762Z" fill="#FF5757" fill-opacity="0.19"/>
<path d="M56.1905 99.7381C56.1905 102.066 54.3037 103.952 51.9762 103.952C49.6487 103.952 47.7619 102.066 47.7619 99.7381C47.7619 97.4106 49.6487 95.5238 51.9762 95.5238C54.3037 95.5238 56.1905 97.4106 56.1905 99.7381Z" fill="#FF5757" fill-opacity="0.19"/>
<path d="M56.1905 147.5C56.1905 149.827 54.3037 151.714 51.9762 151.714C49.6487 151.714 47.7619 149.827 47.7619 147.5C47.7619 145.173 49.6487 143.286 51.9762 143.286C54.3037 143.286 56.1905 145.173 56.1905 147.5Z" fill="#FF5757" fill-opacity="0.19"/>
<path d="M56.1905 195.262C56.1905 197.589 54.3037 199.476 51.9762 199.476C49.6487 199.476 47.7619 197.589 47.7619 195.262C47.7619 192.934 49.6487 191.048 51.9762 191.048C54.3037 191.048 56.1905 192.934 56.1905 195.262Z" fill="#FF5757" fill-opacity="0.19"/>
<path d="M56.1905 243.024C56.1905 245.351 54.3037 247.238 51.9762 247.238C49.6487 247.238 47.7619 245.351 47.7619 243.024C47.7619 240.696 49.6487 238.81 51.9762 238.81C54.3037 238.81 56.1905 240.696 56.1905 243.024Z" fill="#FF5757" fill-opacity="0.19"/>
<path d="M56.1905 290.786C56.1905 293.113 54.3037 295 51.9762 295C49.6487 295 47.7619 293.113 47.7619 290.786C47.7619 288.458 49.6487 286.571 51.9762 286.571C54.3037 286.571 56.1905 288.458 56.1905 290.786Z" fill="#FF5757" fill-opacity="0.19"/>
<path d="M103.952 4.21429C103.952 6.54177 102.066 8.42857 99.7381 8.42857C97.4106 8.42857 95.5238 6.54177 95.5238 4.21429C95.5238 1.8868 97.4106 0 99.7381 0C102.066 0 103.952 1.8868 103.952 4.21429Z" fill="#FF5757" fill-opacity="0.19"/>
<path d="M103.952 51.9762C103.952 54.3037 102.066 56.1905 99.7381 56.1905C97.4106 56.1905 95.5238 54.3037 95.5238 51.9762C95.5238 49.6487 97.4106 47.7619 99.7381 47.7619C102.066 47.7619 103.952 49.6487 103.952 51.9762Z" fill="#FF5757" fill-opacity="0.19"/>
<path d="M103.952 99.7381C103.952 102.066 102.066 103.952 99.7381 103.952C97.4106 103.952 95.5238 102.066 95.5238 99.7381C95.5238 97.4106 97.4106 95.5238 99.7381 95.5238C102.066 95.5238 103.952 97.4106 103.952 99.7381Z" fill="#FF5757" fill-opacity="0.19"/>
<path d="M103.952 147.5C103.952 149.827 102.066 151.714 99.7381 151.714C97.4106 151.714 95.5238 149.827 95.5238 147.5C95.5238 145.173 97.4106 143.286 99.7381 143.286C102.066 143.286 103.952 145.173 103.952 147.5Z" fill="#FF5757" fill-opacity="0.19"/>
<path d="M103.952 195.262C103.952 197.589 102.066 199.476 99.7381 199.476C97.4106 199.476 95.5238 197.589 95.5238 195.262C95.5238 192.934 97.4106 191.048 99.7381 191.048C102.066 191.048 103.952 192.934 103.952 195.262Z" fill="#FF5757" fill-opacity="0.19"/>
<path d="M103.952 243.024C103.952 245.351 102.066 247.238 99.7381 247.238C97.4106 247.238 95.5238 245.351 95.5238 243.024C95.5238 240.696 97.4106 238.81 99.7381 238.81C102.066 238.81 103.952 240.696 103.952 243.024Z" fill="#FF5757" fill-opacity="0.19"/>
<path d="M103.952 290.786C103.952 293.113 102.066 295 99.7381 295C97.4106 295 95.5238 293.113 95.5238 290.786C95.5238 288.458 97.4106 286.571 99.7381 286.571C102.066 286.571 103.952 288.458 103.952 290.786Z" fill="#FF5757" fill-opacity="0.19"/>
<path d="M151.714 4.21429C151.714 6.54177 149.827 8.42857 147.5 8.42857C145.173 8.42857 143.286 6.54177 143.286 4.21429C143.286 1.8868 145.173 0 147.5 0C149.827 0 151.714 1.8868 151.714 4.21429Z" fill="#FF5757" fill-opacity="0.19"/>
<path d="M151.714 51.9762C151.714 54.3037 149.827 56.1905 147.5 56.1905C145.173 56.1905 143.286 54.3037 143.286 51.9762C143.286 49.6487 145.173 47.7619 147.5 47.7619C149.827 47.7619 151.714 49.6487 151.714 51.9762Z" fill="#FF5757" fill-opacity="0.19"/>
<path d="M151.714 99.7381C151.714 102.066 149.827 103.952 147.5 103.952C145.173 103.952 143.286 102.066 143.286 99.7381C143.286 97.4106 145.173 95.5238 147.5 95.5238C149.827 95.5238 151.714 97.4106 151.714 99.7381Z" fill="#FF5757" fill-opacity="0.19"/>
<path d="M151.714 147.5C151.714 149.827 149.827 151.714 147.5 151.714C145.173 151.714 143.286 149.827 143.286 147.5C143.286 145.173 145.173 143.286 147.5 143.286C149.827 143.286 151.714 145.173 151.714 147.5Z" fill="#FF5757" fill-opacity="0.19"/>
<path d="M151.714 195.262C151.714 197.589 149.827 199.476 147.5 199.476C145.173 199.476 143.286 197.589 143.286 195.262C143.286 192.934 145.173 191.048 147.5 191.048C149.827 191.048 151.714 192.934 151.714 195.262Z" fill="#FF5757" fill-opacity="0.19"/>
<path d="M151.714 243.024C151.714 245.351 149.827 247.238 147.5 247.238C145.173 247.238 143.286 245.351 143.286 243.024C143.286 240.696 145.173 238.81 147.5 238.81C149.827 238.81 151.714 240.696 151.714 243.024Z" fill="#FF5757" fill-opacity="0.19"/>
<path d="M151.714 290.786C151.714 293.113 149.827 295 147.5 295C145.173 295 143.286 293.113 143.286 290.786C143.286 288.458 145.173 286.571 147.5 286.571C149.827 286.571 151.714 288.458 151.714 290.786Z" fill="#FF5757" fill-opacity="0.19"/>
<path d="M199.476 4.21429C199.476 6.54177 197.589 8.42857 195.262 8.42857C192.934 8.42857 191.048 6.54177 191.048 4.21429C191.048 1.8868 192.934 0 195.262 0C197.589 0 199.476 1.8868 199.476 4.21429Z" fill="#FF5757" fill-opacity="0.19"/>
<path d="M199.476 51.9762C199.476 54.3037 197.589 56.1905 195.262 56.1905C192.934 56.1905 191.048 54.3037 191.048 51.9762C191.048 49.6487 192.934 47.7619 195.262 47.7619C197.589 47.7619 199.476 49.6487 199.476 51.9762Z" fill="#FF5757" fill-opacity="0.19"/>
<path d="M199.476 99.7381C199.476 102.066 197.589 103.952 195.262 103.952C192.934 103.952 191.048 102.066 191.048 99.7381C191.048 97.4106 192.934 95.5238 195.262 95.5238C197.589 95.5238 199.476 97.4106 199.476 99.7381Z" fill="#FF5757" fill-opacity="0.19"/>
<path d="M199.476 147.5C199.476 149.827 197.589 151.714 195.262 151.714C192.934 151.714 191.048 149.827 191.048 147.5C191.048 145.173 192.934 143.286 195.262 143.286C197.589 143.286 199.476 145.173 199.476 147.5Z" fill="#FF5757" fill-opacity="0.19"/>
<path d="M199.476 195.262C199.476 197.589 197.589 199.476 195.262 199.476C192.934 199.476 191.048 197.589 191.048 195.262C191.048 192.934 192.934 191.048 195.262 191.048C197.589 191.048 199.476 192.934 199.476 195.262Z" fill="#FF5757" fill-opacity="0.19"/>
<path d="M199.476 243.024C199.476 245.351 197.589 247.238 195.262 247.238C192.934 247.238 191.048 245.351 191.048 243.024C191.048 240.696 192.934 238.81 195.262 238.81C197.589 238.81 199.476 240.696 199.476 243.024Z" fill="#FF5757" fill-opacity="0.19"/>
<path d="M199.476 290.786C199.476 293.113 197.589 295 195.262 295C192.934 295 191.048 293.113 191.048 290.786C191.048 288.458 192.934 286.571 195.262 286.571C197.589 286.571 199.476 288.458 199.476 290.786Z" fill="#FF5757" fill-opacity="0.19"/>
<path d="M247.238 4.21429C247.238 6.54177 245.351 8.42857 243.024 8.42857C240.696 8.42857 238.81 6.54177 238.81 4.21429C238.81 1.8868 240.696 0 243.024 0C245.351 0 247.238 1.8868 247.238 4.21429Z" fill="#FF5757" fill-opacity="0.19"/>
<path d="M247.238 51.9762C247.238 54.3037 245.351 56.1905 243.024 56.1905C240.696 56.1905 238.81 54.3037 238.81 51.9762C238.81 49.6487 240.696 47.7619 243.024 47.7619C245.351 47.7619 247.238 49.6487 247.238 51.9762Z" fill="#FF5757" fill-opacity="0.19"/>
<path d="M247.238 99.7381C247.238 102.066 245.351 103.952 243.024 103.952C240.696 103.952 238.81 102.066 238.81 99.7381C238.81 97.4106 240.696 95.5238 243.024 95.5238C245.351 95.5238 247.238 97.4106 247.238 99.7381Z" fill="#FF5757" fill-opacity="0.19"/>
<path d="M247.238 147.5C247.238 149.827 245.351 151.714 243.024 151.714C240.696 151.714 238.81 149.827 238.81 147.5C238.81 145.173 240.696 143.286 243.024 143.286C245.351 143.286 247.238 145.173 247.238 147.5Z" fill="#FF5757" fill-opacity="0.19"/>
<path d="M247.238 195.262C247.238 197.589 245.351 199.476 243.024 199.476C240.696 199.476 238.81 197.589 238.81 195.262C238.81 192.934 240.696 191.048 243.024 191.048C245.351 191.048 247.238 192.934 247.238 195.262Z" fill="#FF5757" fill-opacity="0.19"/>
<path d="M247.238 243.024C247.238 245.351 245.351 247.238 243.024 247.238C240.696 247.238 238.81 245.351 238.81 243.024C238.81 240.696 240.696 238.81 243.024 238.81C245.351 238.81 247.238 240.696 247.238 243.024Z" fill="#FF5757" fill-opacity="0.19"/>
<path d="M247.238 290.786C247.238 293.113 245.351 295 243.024 295C240.696 295 238.81 293.113 238.81 290.786C238.81 288.458 240.696 286.571 243.024 286.571C245.351 286.571 247.238 288.458 247.238 290.786Z" fill="#FF5757" fill-opacity="0.19"/>
<path d="M295 4.21429C295 6.54177 293.113 8.42857 290.786 8.42857C288.458 8.42857 286.571 6.54177 286.571 4.21429C286.571 1.8868 288.458 0 290.786 0C293.113 0 295 1.8868 295 4.21429Z" fill="#FF5757" fill-opacity="0.19"/>
<path d="M295 51.9762C295 54.3037 293.113 56.1905 290.786 56.1905C288.458 56.1905 286.571 54.3037 286.571 51.9762C286.571 49.6487 288.458 47.7619 290.786 47.7619C293.113 47.7619 295 49.6487 295 51.9762Z" fill="#FF5757" fill-opacity="0.19"/>
<path d="M295 99.7381C295 102.066 293.113 103.952 290.786 103.952C288.458 103.952 286.571 102.066 286.571 99.7381C286.571 97.4106 288.458 95.5238 290.786 95.5238C293.113 95.5238 295 97.4106 295 99.7381Z" fill="#FF5757" fill-opacity="0.19"/>
<path d="M295 147.5C295 149.827 293.113 151.714 290.786 151.714C288.458 151.714 286.571 149.827 286.571 147.5C286.571 145.173 288.458 143.286 290.786 143.286C293.113 143.286 295 145.173 295 147.5Z" fill="#FF5757" fill-opacity="0.19"/>
<path d="M295 195.262C295 197.589 293.113 199.476 290.786 199.476C288.458 199.476 286.571 197.589 286.571 195.262C286.571 192.934 288.458 191.048 290.786 191.048C293.113 191.048 295 192.934 295 195.262Z" fill="#FF5757" fill-opacity="0.19"/>
<path d="M295 243.024C295 245.351 293.113 247.238 290.786 247.238C288.458 247.238 286.571 245.351 286.571 243.024C286.571 240.696 288.458 238.81 290.786 238.81C293.113 238.81 295 240.696 295 243.024Z" fill="#FF5757" fill-opacity="0.19"/>
<path d="M295 290.786C295 293.113 293.113 295 290.786 295C288.458 295 286.571 293.113 286.571 290.786C286.571 288.458 288.458 286.571 290.786 286.571C293.113 286.571 295 288.458 295 290.786Z" fill="#FF5757" fill-opacity="0.19"/>
</svg>
