<svg width="111" height="111" viewBox="0 0 111 111" fill="none" xmlns="http://www.w3.org/2000/svg">
<path d="M3.16071 1.58036C3.16071 2.45316 2.45316 3.16071 1.58036 3.16071C0.70755 3.16071 0 2.45316 0 1.58036C0 0.70755 0.70755 0 1.58036 0C2.45316 0 3.16071 0.70755 3.16071 1.58036Z" fill="#FF5757" fill-opacity="0.19"/>
<path d="M3.16071 19.4911C3.16071 20.3639 2.45316 21.0714 1.58036 21.0714C0.70755 21.0714 0 20.3639 0 19.4911C0 18.6183 0.70755 17.9107 1.58036 17.9107C2.45316 17.9107 3.16071 18.6183 3.16071 19.4911Z" fill="#FF5757" fill-opacity="0.19"/>
<path d="M3.16071 37.4018C3.16071 38.2746 2.45316 38.9821 1.58036 38.9821C0.70755 38.9821 0 38.2746 0 37.4018C0 36.529 0.70755 35.8214 1.58036 35.8214C2.45316 35.8214 3.16071 36.529 3.16071 37.4018Z" fill="#FF5757" fill-opacity="0.19"/>
<path d="M3.16071 55.3125C3.16071 56.1853 2.45316 56.8929 1.58036 56.8929C0.70755 56.8929 0 56.1853 0 55.3125C0 54.4397 0.70755 53.7321 1.58036 53.7321C2.45316 53.7321 3.16071 54.4397 3.16071 55.3125Z" fill="#FF5757" fill-opacity="0.19"/>
<path d="M3.16071 73.2232C3.16071 74.096 2.45316 74.8036 1.58036 74.8036C0.70755 74.8036 0 74.096 0 73.2232C0 72.3504 0.70755 71.6429 1.58036 71.6429C2.45316 71.6429 3.16071 72.3504 3.16071 73.2232Z" fill="#FF5757" fill-opacity="0.19"/>
<path d="M3.16071 91.1339C3.16071 92.0067 2.45316 92.7143 1.58036 92.7143C0.70755 92.7143 0 92.0067 0 91.1339C0 90.2611 0.70755 89.5536 1.58036 89.5536C2.45316 89.5536 3.16071 90.2611 3.16071 91.1339Z" fill="#FF5757" fill-opacity="0.19"/>
<path d="M3.16071 109.045C3.16071 109.917 2.45316 110.625 1.58036 110.625C0.70755 110.625 0 109.917 0 109.045C0 108.172 0.70755 107.464 1.58036 107.464C2.45316 107.464 3.16071 108.172 3.16071 109.045Z" fill="#FF5757" fill-opacity="0.19"/>
<path d="M21.0714 1.58036C21.0714 2.45316 20.3639 3.16071 19.4911 3.16071C18.6183 3.16071 17.9107 2.45316 17.9107 1.58036C17.9107 0.70755 18.6183 0 19.4911 0C20.3639 0 21.0714 0.70755 21.0714 1.58036Z" fill="#FF5757" fill-opacity="0.19"/>
<path d="M21.0714 19.4911C21.0714 20.3639 20.3639 21.0714 19.4911 21.0714C18.6183 21.0714 17.9107 20.3639 17.9107 19.4911C17.9107 18.6183 18.6183 17.9107 19.4911 17.9107C20.3639 17.9107 21.0714 18.6183 21.0714 19.4911Z" fill="#FF5757" fill-opacity="0.19"/>
<path d="M21.0714 37.4018C21.0714 38.2746 20.3639 38.9821 19.4911 38.9821C18.6183 38.9821 17.9107 38.2746 17.9107 37.4018C17.9107 36.529 18.6183 35.8214 19.4911 35.8214C20.3639 35.8214 21.0714 36.529 21.0714 37.4018Z" fill="#FF5757" fill-opacity="0.19"/>
<path d="M21.0714 55.3125C21.0714 56.1853 20.3639 56.8929 19.4911 56.8929C18.6183 56.8929 17.9107 56.1853 17.9107 55.3125C17.9107 54.4397 18.6183 53.7321 19.4911 53.7321C20.3639 53.7321 21.0714 54.4397 21.0714 55.3125Z" fill="#FF5757" fill-opacity="0.19"/>
<path d="M21.0714 73.2232C21.0714 74.096 20.3639 74.8036 19.4911 74.8036C18.6183 74.8036 17.9107 74.096 17.9107 73.2232C17.9107 72.3504 18.6183 71.6429 19.4911 71.6429C20.3639 71.6429 21.0714 72.3504 21.0714 73.2232Z" fill="#FF5757" fill-opacity="0.19"/>
<path d="M21.0714 91.1339C21.0714 92.0067 20.3639 92.7143 19.4911 92.7143C18.6183 92.7143 17.9107 92.0067 17.9107 91.1339C17.9107 90.2611 18.6183 89.5536 19.4911 89.5536C20.3639 89.5536 21.0714 90.2611 21.0714 91.1339Z" fill="#FF5757" fill-opacity="0.19"/>
<path d="M21.0714 109.045C21.0714 109.917 20.3639 110.625 19.4911 110.625C18.6183 110.625 17.9107 109.917 17.9107 109.045C17.9107 108.172 18.6183 107.464 19.4911 107.464C20.3639 107.464 21.0714 108.172 21.0714 109.045Z" fill="#FF5757" fill-opacity="0.19"/>
<path d="M38.9821 1.58036C38.9821 2.45316 38.2746 3.16071 37.4018 3.16071C36.529 3.16071 35.8214 2.45316 35.8214 1.58036C35.8214 0.70755 36.529 0 37.4018 0C38.2746 0 38.9821 0.70755 38.9821 1.58036Z" fill="#FF5757" fill-opacity="0.19"/>
<path d="M38.9821 19.4911C38.9821 20.3639 38.2746 21.0714 37.4018 21.0714C36.529 21.0714 35.8214 20.3639 35.8214 19.4911C35.8214 18.6183 36.529 17.9107 37.4018 17.9107C38.2746 17.9107 38.9821 18.6183 38.9821 19.4911Z" fill="#FF5757" fill-opacity="0.19"/>
<path d="M38.9821 37.4018C38.9821 38.2746 38.2746 38.9821 37.4018 38.9821C36.529 38.9821 35.8214 38.2746 35.8214 37.4018C35.8214 36.529 36.529 35.8214 37.4018 35.8214C38.2746 35.8214 38.9821 36.529 38.9821 37.4018Z" fill="#FF5757" fill-opacity="0.19"/>
<path d="M38.9821 55.3125C38.9821 56.1853 38.2746 56.8929 37.4018 56.8929C36.529 56.8929 35.8214 56.1853 35.8214 55.3125C35.8214 54.4397 36.529 53.7321 37.4018 53.7321C38.2746 53.7321 38.9821 54.4397 38.9821 55.3125Z" fill="#FF5757" fill-opacity="0.19"/>
<path d="M38.9821 73.2232C38.9821 74.096 38.2746 74.8036 37.4018 74.8036C36.529 74.8036 35.8214 74.096 35.8214 73.2232C35.8214 72.3504 36.529 71.6429 37.4018 71.6429C38.2746 71.6429 38.9821 72.3504 38.9821 73.2232Z" fill="#FF5757" fill-opacity="0.19"/>
<path d="M38.9821 91.1339C38.9821 92.0067 38.2746 92.7143 37.4018 92.7143C36.529 92.7143 35.8214 92.0067 35.8214 91.1339C35.8214 90.2611 36.529 89.5536 37.4018 89.5536C38.2746 89.5536 38.9821 90.2611 38.9821 91.1339Z" fill="#FF5757" fill-opacity="0.19"/>
<path d="M38.9821 109.045C38.9821 109.917 38.2746 110.625 37.4018 110.625C36.529 110.625 35.8214 109.917 35.8214 109.045C35.8214 108.172 36.529 107.464 37.4018 107.464C38.2746 107.464 38.9821 108.172 38.9821 109.045Z" fill="#FF5757" fill-opacity="0.19"/>
<path d="M56.8929 1.58036C56.8929 2.45316 56.1853 3.16071 55.3125 3.16071C54.4397 3.16071 53.7321 2.45316 53.7321 1.58036C53.7321 0.70755 54.4397 0 55.3125 0C56.1853 0 56.8929 0.70755 56.8929 1.58036Z" fill="#FF5757" fill-opacity="0.19"/>
<path d="M56.8929 19.4911C56.8929 20.3639 56.1853 21.0714 55.3125 21.0714C54.4397 21.0714 53.7321 20.3639 53.7321 19.4911C53.7321 18.6183 54.4397 17.9107 55.3125 17.9107C56.1853 17.9107 56.8929 18.6183 56.8929 19.4911Z" fill="#FF5757" fill-opacity="0.19"/>
<path d="M56.8929 37.4018C56.8929 38.2746 56.1853 38.9821 55.3125 38.9821C54.4397 38.9821 53.7321 38.2746 53.7321 37.4018C53.7321 36.529 54.4397 35.8214 55.3125 35.8214C56.1853 35.8214 56.8929 36.529 56.8929 37.4018Z" fill="#FF5757" fill-opacity="0.19"/>
<path d="M56.8929 55.3125C56.8929 56.1853 56.1853 56.8929 55.3125 56.8929C54.4397 56.8929 53.7321 56.1853 53.7321 55.3125C53.7321 54.4397 54.4397 53.7321 55.3125 53.7321C56.1853 53.7321 56.8929 54.4397 56.8929 55.3125Z" fill="#FF5757" fill-opacity="0.19"/>
<path d="M56.8929 73.2232C56.8929 74.096 56.1853 74.8036 55.3125 74.8036C54.4397 74.8036 53.7321 74.096 53.7321 73.2232C53.7321 72.3504 54.4397 71.6429 55.3125 71.6429C56.1853 71.6429 56.8929 72.3504 56.8929 73.2232Z" fill="#FF5757" fill-opacity="0.19"/>
<path d="M56.8929 91.1339C56.8929 92.0067 56.1853 92.7143 55.3125 92.7143C54.4397 92.7143 53.7321 92.0067 53.7321 91.1339C53.7321 90.2611 54.4397 89.5536 55.3125 89.5536C56.1853 89.5536 56.8929 90.2611 56.8929 91.1339Z" fill="#FF5757" fill-opacity="0.19"/>
<path d="M56.8929 109.045C56.8929 109.917 56.1853 110.625 55.3125 110.625C54.4397 110.625 53.7321 109.917 53.7321 109.045C53.7321 108.172 54.4397 107.464 55.3125 107.464C56.1853 107.464 56.8929 108.172 56.8929 109.045Z" fill="#FF5757" fill-opacity="0.19"/>
<path d="M74.8036 1.58036C74.8036 2.45316 74.096 3.16071 73.2232 3.16071C72.3504 3.16071 71.6429 2.45316 71.6429 1.58036C71.6429 0.70755 72.3504 0 73.2232 0C74.096 0 74.8036 0.70755 74.8036 1.58036Z" fill="#FF5757" fill-opacity="0.19"/>
<path d="M74.8036 19.4911C74.8036 20.3639 74.096 21.0714 73.2232 21.0714C72.3504 21.0714 71.6429 20.3639 71.6429 19.4911C71.6429 18.6183 72.3504 17.9107 73.2232 17.9107C74.096 17.9107 74.8036 18.6183 74.8036 19.4911Z" fill="#FF5757" fill-opacity="0.19"/>
<path d="M74.8036 37.4018C74.8036 38.2746 74.096 38.9821 73.2232 38.9821C72.3504 38.9821 71.6429 38.2746 71.6429 37.4018C71.6429 36.529 72.3504 35.8214 73.2232 35.8214C74.096 35.8214 74.8036 36.529 74.8036 37.4018Z" fill="#FF5757" fill-opacity="0.19"/>
<path d="M74.8036 55.3125C74.8036 56.1853 74.096 56.8929 73.2232 56.8929C72.3504 56.8929 71.6429 56.1853 71.6429 55.3125C71.6429 54.4397 72.3504 53.7321 73.2232 53.7321C74.096 53.7321 74.8036 54.4397 74.8036 55.3125Z" fill="#FF5757" fill-opacity="0.19"/>
<path d="M74.8036 73.2232C74.8036 74.096 74.096 74.8036 73.2232 74.8036C72.3504 74.8036 71.6429 74.096 71.6429 73.2232C71.6429 72.3504 72.3504 71.6429 73.2232 71.6429C74.096 71.6429 74.8036 72.3504 74.8036 73.2232Z" fill="#FF5757" fill-opacity="0.19"/>
<path d="M74.8036 91.1339C74.8036 92.0067 74.096 92.7143 73.2232 92.7143C72.3504 92.7143 71.6429 92.0067 71.6429 91.1339C71.6429 90.2611 72.3504 89.5536 73.2232 89.5536C74.096 89.5536 74.8036 90.2611 74.8036 91.1339Z" fill="#FF5757" fill-opacity="0.19"/>
<path d="M74.8036 109.045C74.8036 109.917 74.096 110.625 73.2232 110.625C72.3504 110.625 71.6429 109.917 71.6429 109.045C71.6429 108.172 72.3504 107.464 73.2232 107.464C74.096 107.464 74.8036 108.172 74.8036 109.045Z" fill="#FF5757" fill-opacity="0.19"/>
<path d="M92.7143 1.58036C92.7143 2.45316 92.0067 3.16071 91.1339 3.16071C90.2611 3.16071 89.5536 2.45316 89.5536 1.58036C89.5536 0.70755 90.2611 0 91.1339 0C92.0067 0 92.7143 0.70755 92.7143 1.58036Z" fill="#FF5757" fill-opacity="0.19"/>
<path d="M92.7143 19.4911C92.7143 20.3639 92.0067 21.0714 91.1339 21.0714C90.2611 21.0714 89.5536 20.3639 89.5536 19.4911C89.5536 18.6183 90.2611 17.9107 91.1339 17.9107C92.0067 17.9107 92.7143 18.6183 92.7143 19.4911Z" fill="#FF5757" fill-opacity="0.19"/>
<path d="M92.7143 37.4018C92.7143 38.2746 92.0067 38.9821 91.1339 38.9821C90.2611 38.9821 89.5536 38.2746 89.5536 37.4018C89.5536 36.529 90.2611 35.8214 91.1339 35.8214C92.0067 35.8214 92.7143 36.529 92.7143 37.4018Z" fill="#FF5757" fill-opacity="0.19"/>
<path d="M92.7143 55.3125C92.7143 56.1853 92.0067 56.8929 91.1339 56.8929C90.2611 56.8929 89.5536 56.1853 89.5536 55.3125C89.5536 54.4397 90.2611 53.7321 91.1339 53.7321C92.0067 53.7321 92.7143 54.4397 92.7143 55.3125Z" fill="#FF5757" fill-opacity="0.19"/>
<path d="M92.7143 73.2232C92.7143 74.096 92.0067 74.8036 91.1339 74.8036C90.2611 74.8036 89.5536 74.096 89.5536 73.2232C89.5536 72.3504 90.2611 71.6429 91.1339 71.6429C92.0067 71.6429 92.7143 72.3504 92.7143 73.2232Z" fill="#FF5757" fill-opacity="0.19"/>
<path d="M92.7143 91.1339C92.7143 92.0067 92.0067 92.7143 91.1339 92.7143C90.2611 92.7143 89.5536 92.0067 89.5536 91.1339C89.5536 90.2611 90.2611 89.5536 91.1339 89.5536C92.0067 89.5536 92.7143 90.2611 92.7143 91.1339Z" fill="#FF5757" fill-opacity="0.19"/>
<path d="M92.7143 109.045C92.7143 109.917 92.0067 110.625 91.1339 110.625C90.2611 110.625 89.5536 109.917 89.5536 109.045C89.5536 108.172 90.2611 107.464 91.1339 107.464C92.0067 107.464 92.7143 108.172 92.7143 109.045Z" fill="#FF5757" fill-opacity="0.19"/>
<path d="M110.625 1.58036C110.625 2.45316 109.917 3.16071 109.045 3.16071C108.172 3.16071 107.464 2.45316 107.464 1.58036C107.464 0.70755 108.172 0 109.045 0C109.917 0 110.625 0.70755 110.625 1.58036Z" fill="#FF5757" fill-opacity="0.19"/>
<path d="M110.625 19.4911C110.625 20.3639 109.917 21.0714 109.045 21.0714C108.172 21.0714 107.464 20.3639 107.464 19.4911C107.464 18.6183 108.172 17.9107 109.045 17.9107C109.917 17.9107 110.625 18.6183 110.625 19.4911Z" fill="#FF5757" fill-opacity="0.19"/>
<path d="M110.625 37.4018C110.625 38.2746 109.917 38.9821 109.045 38.9821C108.172 38.9821 107.464 38.2746 107.464 37.4018C107.464 36.529 108.172 35.8214 109.045 35.8214C109.917 35.8214 110.625 36.529 110.625 37.4018Z" fill="#FF5757" fill-opacity="0.19"/>
<path d="M110.625 55.3125C110.625 56.1853 109.917 56.8929 109.045 56.8929C108.172 56.8929 107.464 56.1853 107.464 55.3125C107.464 54.4397 108.172 53.7321 109.045 53.7321C109.917 53.7321 110.625 54.4397 110.625 55.3125Z" fill="#FF5757" fill-opacity="0.19"/>
<path d="M110.625 73.2232C110.625 74.096 109.917 74.8036 109.045 74.8036C108.172 74.8036 107.464 74.096 107.464 73.2232C107.464 72.3504 108.172 71.6429 109.045 71.6429C109.917 71.6429 110.625 72.3504 110.625 73.2232Z" fill="#FF5757" fill-opacity="0.19"/>
<path d="M110.625 91.1339C110.625 92.0067 109.917 92.7143 109.045 92.7143C108.172 92.7143 107.464 92.0067 107.464 91.1339C107.464 90.2611 108.172 89.5536 109.045 89.5536C109.917 89.5536 110.625 90.2611 110.625 91.1339Z" fill="#FF5757" fill-opacity="0.19"/>
<path d="M110.625 109.045C110.625 109.917 109.917 110.625 109.045 110.625C108.172 110.625 107.464 109.917 107.464 109.045C107.464 108.172 108.172 107.464 109.045 107.464C109.917 107.464 110.625 108.172 110.625 109.045Z" fill="#FF5757" fill-opacity="0.19"/>
</svg>
