<svg width="219" height="113" viewBox="0 0 219 113" fill="none" xmlns="http://www.w3.org/2000/svg">
<path d="M78.9107 27.338V17.2265H96.6767V0.878016H106.977V17.2265H124.649V27.338H106.977V43.6865H96.6767V27.338H78.9107Z" fill="#FF5757"/>
<path d="M0.495439 103.64V74.534H6.8156L16.0879 92.9955L25.2355 74.534H31.5557V103.64H26.2335V83.5569L18.1254 99.482H13.9258L5.81768 83.5569V103.64H0.495439ZM44.1882 104.139C42.4141 104.139 40.9588 103.862 39.8223 103.307C38.6858 102.725 37.8403 101.963 37.2859 101.02C36.7315 100.078 36.4543 99.0385 36.4543 97.902C36.4543 95.9893 37.2028 94.437 38.6997 93.245C40.1965 92.0531 42.4419 91.4571 45.4356 91.4571H50.6747V90.9581C50.6747 89.5444 50.2728 88.5049 49.4689 87.8396C48.665 87.1743 47.6671 86.8417 46.4751 86.8417C45.394 86.8417 44.4516 87.105 43.6477 87.6317C42.8438 88.1307 42.3448 88.8791 42.1508 89.877H36.9533C37.0919 88.3802 37.5909 87.0773 38.4502 85.9685C39.3372 84.8597 40.4737 84.0143 41.8597 83.4321C43.2457 82.8223 44.7981 82.5174 46.5167 82.5174C49.455 82.5174 51.7696 83.252 53.4606 84.7211C55.1515 86.1903 55.9969 88.2693 55.9969 90.9581V103.64H51.4647L50.9658 100.314C50.3559 101.422 49.4966 102.337 48.3878 103.058C47.3067 103.779 45.9069 104.139 44.1882 104.139ZM45.394 99.981C46.9186 99.981 48.0967 99.482 48.9283 98.4841C49.7877 97.4862 50.3282 96.2526 50.55 94.7835H46.0177C44.604 94.7835 43.5922 95.0468 42.9824 95.5735C42.3726 96.0725 42.0676 96.6962 42.0676 97.4446C42.0676 98.2485 42.3726 98.8722 42.9824 99.3157C43.5922 99.7592 44.3961 99.981 45.394 99.981ZM61.0759 103.64V83.0163H65.7744L66.1902 86.5091C66.8278 85.2894 67.7425 84.3192 68.9345 83.5985C70.1542 82.8777 71.5817 82.5174 73.2172 82.5174C75.7675 82.5174 77.7494 83.3213 79.1632 84.929C80.5769 86.5368 81.2837 88.893 81.2837 91.9976V103.64H75.9615V92.4966C75.9615 90.7225 75.6011 89.3642 74.8804 88.4217C74.1597 87.4793 73.037 87.008 71.5124 87.008C70.0156 87.008 68.782 87.5347 67.8118 88.5881C66.8693 89.6414 66.3981 91.1106 66.3981 92.9955V103.64H61.0759ZM88.2607 112.788L93.0424 102.268H91.795L83.7701 83.0163H89.5497L95.3293 97.5278L101.358 83.0163H107.013L93.9156 112.788H88.2607ZM120.525 103.64V74.534H126.845L136.118 92.9955L145.265 74.534H151.585V103.64H146.263V83.5569L138.155 99.482H133.956L125.847 83.5569V103.64H120.525ZM167.004 104.139C165.008 104.139 163.206 103.682 161.598 102.767C160.018 101.852 158.757 100.591 157.815 98.9831C156.9 97.3476 156.443 95.4626 156.443 93.3282C156.443 91.1937 156.914 89.3226 157.856 87.7149C158.799 86.0794 160.06 84.8043 161.64 83.8895C163.248 82.9748 165.05 82.5174 167.045 82.5174C169.014 82.5174 170.788 82.9748 172.368 83.8895C173.975 84.8043 175.237 86.0794 176.151 87.7149C177.094 89.3226 177.565 91.1937 177.565 93.3282C177.565 95.4626 177.094 97.3476 176.151 98.9831C175.237 100.591 173.975 101.852 172.368 102.767C170.76 103.682 168.972 104.139 167.004 104.139ZM167.004 99.5236C168.39 99.5236 169.596 99.0108 170.621 97.9851C171.647 96.9318 172.16 95.3795 172.16 93.3282C172.16 91.2769 171.647 89.7384 170.621 88.7128C169.596 87.6594 168.404 87.1328 167.045 87.1328C165.632 87.1328 164.412 87.6594 163.386 88.7128C162.388 89.7384 161.889 91.2769 161.889 93.3282C161.889 95.3795 162.388 96.9318 163.386 97.9851C164.412 99.0108 165.618 99.5236 167.004 99.5236ZM182.324 103.64V83.0163H187.064L187.563 86.8833C188.311 85.5527 189.323 84.4994 190.598 83.7232C191.901 82.9193 193.426 82.5174 195.172 82.5174V88.1307H193.675C192.511 88.1307 191.471 88.3109 190.557 88.6712C189.642 89.0316 188.921 89.6553 188.394 90.5423C187.896 91.4294 187.646 92.6629 187.646 94.2429V103.64H182.324ZM208.465 104.139C206.386 104.139 204.543 103.695 202.935 102.808C201.327 101.921 200.066 100.674 199.151 99.0662C198.236 97.4585 197.779 95.6012 197.779 93.4945C197.779 91.3601 198.222 89.4612 199.109 87.798C200.024 86.1348 201.272 84.8459 202.852 83.9311C204.459 82.9886 206.344 82.5174 208.507 82.5174C210.53 82.5174 212.318 82.9609 213.87 83.8479C215.423 84.735 216.628 85.9547 217.488 87.507C218.375 89.0316 218.818 90.7364 218.818 92.6213C218.818 92.9262 218.805 93.245 218.777 93.5777C218.777 93.9103 218.763 94.2568 218.735 94.6172H203.06C203.17 96.2249 203.725 97.4862 204.723 98.4009C205.748 99.3157 206.982 99.7731 208.423 99.7731C209.504 99.7731 210.405 99.5375 211.126 99.0662C211.875 98.5673 212.429 97.9297 212.789 97.1535H218.195C217.807 98.4564 217.155 99.6483 216.24 100.729C215.353 101.783 214.245 102.614 212.914 103.224C211.611 103.834 210.128 104.139 208.465 104.139ZM208.507 86.8417C207.204 86.8417 206.053 87.2159 205.055 87.9644C204.057 88.6851 203.42 89.7939 203.143 91.2908H213.413C213.33 89.9325 212.831 88.8514 211.916 88.0475C211.001 87.2436 209.865 86.8417 208.507 86.8417Z" fill="white"/>
</svg>
