<svg width="38" height="37" viewBox="0 0 38 37" fill="none" xmlns="http://www.w3.org/2000/svg">
<path fill-rule="evenodd" clip-rule="evenodd" d="M11.745 0.11C13.7 0.02 14.3233 0 19.3033 0C24.2833 0 24.9066 0.0216666 26.86 0.11C28.8133 0.198333 30.1466 0.51 31.3133 0.961667C32.535 1.42333 33.6433 2.145 34.56 3.07833C35.4933 3.99333 36.2133 5.1 36.6733 6.32333C37.1266 7.49 37.4366 8.82333 37.5266 10.7733C37.6166 12.7317 37.6366 13.355 37.6366 18.3333C37.6366 23.3133 37.615 23.9367 37.5266 25.8917C37.4383 27.8417 37.1266 29.175 36.6733 30.3417C36.2133 31.5652 35.4921 32.6737 34.56 33.59C33.6433 34.5233 32.535 35.2433 31.3133 35.7033C30.1466 36.1567 28.8133 36.4667 26.8633 36.5567C24.9066 36.6467 24.2833 36.6667 19.3033 36.6667C14.3233 36.6667 13.7 36.645 11.745 36.5567C9.79497 36.4683 8.46164 36.1567 7.29497 35.7033C6.0715 35.2433 4.963 34.5221 4.04664 33.59C3.11394 32.6744 2.39216 31.5665 1.93164 30.3433C1.47997 29.1767 1.16997 27.8433 1.07997 25.8933C0.989971 23.935 0.969971 23.3117 0.969971 18.3333C0.969971 13.3533 0.991637 12.73 1.07997 10.7767C1.1683 8.82333 1.47997 7.49 1.93164 6.32333C2.39284 5.10014 3.11517 3.99219 4.0483 3.07667C4.96337 2.14417 6.07076 1.42241 7.2933 0.961667C8.45997 0.51 9.79497 0.2 11.745 0.11ZM26.71 3.41C24.7766 3.32167 24.1966 3.30333 19.3016 3.30333C14.4066 3.30333 13.8266 3.32167 11.8933 3.41C10.105 3.49167 9.13497 3.79 8.4883 4.04167C7.6333 4.375 7.02164 4.77 6.37997 5.41167C5.77171 6.00342 5.3036 6.7238 5.00997 7.52C4.7583 8.16667 4.45997 9.13667 4.3783 10.925C4.28997 12.8583 4.27164 13.4383 4.27164 18.3333C4.27164 23.2283 4.28997 23.8083 4.3783 25.7417C4.45997 27.53 4.7583 28.5 5.00997 29.1467C5.3033 29.9417 5.77164 30.6633 6.37997 31.255C6.97164 31.8633 7.6933 32.3317 8.4883 32.625C9.13497 32.8767 10.105 33.175 11.8933 33.2567C13.8266 33.345 14.405 33.3633 19.3016 33.3633C24.1983 33.3633 24.7766 33.345 26.71 33.2567C28.4983 33.175 29.4683 32.8767 30.115 32.625C30.97 32.2917 31.5816 31.8967 32.2233 31.255C32.8316 30.6633 33.3 29.9417 33.5933 29.1467C33.845 28.5 34.1433 27.53 34.225 25.7417C34.3133 23.8083 34.3316 23.2283 34.3316 18.3333C34.3316 13.4383 34.3133 12.8583 34.225 10.925C34.1433 9.13667 33.845 8.16667 33.5933 7.52C33.26 6.665 32.865 6.05333 32.2233 5.41167C31.6315 4.80345 30.9111 4.33535 30.115 4.04167C29.4683 3.79 28.4983 3.49167 26.71 3.41ZM16.96 23.985C18.2677 24.5294 19.7239 24.6029 21.0798 24.1929C22.4358 23.7829 23.6073 22.9149 24.3943 21.7371C25.1813 20.5593 25.5351 19.1448 25.395 17.7352C25.255 16.3256 24.63 15.0083 23.6266 14.0083C22.987 13.3691 22.2137 12.8797 21.3622 12.5752C20.5107 12.2708 19.6024 12.1589 18.7025 12.2477C17.8026 12.3365 16.9336 12.6236 16.158 13.0885C15.3824 13.5535 14.7195 14.1846 14.2171 14.9364C13.7147 15.6883 13.3853 16.5421 13.2525 17.4366C13.1197 18.3311 13.1869 19.2438 13.4492 20.1092C13.7115 20.9746 14.1624 21.771 14.7695 22.4412C15.3766 23.1114 16.1247 23.6386 16.96 23.985ZM12.64 11.67C13.515 10.795 14.5538 10.1008 15.6971 9.62727C16.8404 9.1537 18.0658 8.90996 19.3033 8.90996C20.5408 8.90996 21.7662 9.1537 22.9095 9.62727C24.0528 10.1008 25.0916 10.795 25.9666 11.67C26.8417 12.545 27.5358 13.5839 28.0094 14.7272C28.4829 15.8705 28.7267 17.0958 28.7267 18.3333C28.7267 19.5708 28.4829 20.7962 28.0094 21.9395C27.5358 23.0828 26.8417 24.1216 25.9666 24.9967C24.1994 26.7639 21.8025 27.7567 19.3033 27.7567C16.8041 27.7567 14.4072 26.7639 12.64 24.9967C10.8727 23.2294 9.87993 20.8326 9.87993 18.3333C9.87993 15.8341 10.8727 13.4372 12.64 11.67ZM30.8166 10.3133C31.0335 10.1088 31.2071 9.8628 31.3271 9.58996C31.4472 9.31711 31.5113 9.02295 31.5157 8.72488C31.52 8.42682 31.4645 8.13091 31.3524 7.85468C31.2404 7.57845 31.074 7.32752 30.8632 7.11673C30.6525 6.90595 30.4015 6.73959 30.1253 6.62753C29.8491 6.51546 29.5531 6.45996 29.2551 6.4643C28.957 6.46865 28.6629 6.53276 28.39 6.65283C28.1172 6.7729 27.8712 6.94649 27.6666 7.16333C27.2688 7.58505 27.051 8.1452 27.0595 8.72488C27.0679 9.30456 27.302 9.85813 27.7119 10.2681C28.1218 10.678 28.6754 10.912 29.2551 10.9205C29.8348 10.9289 30.3949 10.7111 30.8166 10.3133Z" fill="#FF5757"/>
</svg>
