<svg width="20" height="20" viewBox="0 0 20 20" fill="none" xmlns="http://www.w3.org/2000/svg">
<path d="M18.0702 10.8326C17.4056 11.0091 16.7208 11.0985 16.0331 11.0984C13.9392 11.0984 11.9727 10.2844 10.4957 8.80732C9.52577 7.83179 8.82846 6.61909 8.47328 5.29008C8.11809 3.96107 8.11744 2.56218 8.47139 1.23284C8.5156 1.06663 8.51532 0.891721 8.47058 0.725655C8.42584 0.55959 8.33822 0.408208 8.21651 0.286694C8.0948 0.165181 7.94328 0.07781 7.77714 0.033345C7.611 -0.0111199 7.43609 -0.0111149 7.26995 0.0333593C5.60574 0.476847 4.08742 1.35016 2.86728 2.56571C-0.95576 6.38874 -0.95576 12.6117 2.86728 16.4367C3.77599 17.3505 4.8569 18.075 6.04746 18.5682C7.23802 19.0615 8.51459 19.3137 9.80328 19.3104C11.0916 19.314 12.3679 19.062 13.5581 18.5688C14.7484 18.0757 15.829 17.3514 16.7373 16.4377C17.9538 15.2173 18.8275 13.6982 19.2706 12.0331C19.3147 11.8669 19.3143 11.6922 19.2696 11.5262C19.2249 11.3602 19.1374 11.2089 19.0158 11.0874C18.8943 10.9659 18.743 10.8784 18.5771 10.8337C18.4111 10.7889 18.2363 10.7886 18.0702 10.8326ZM15.3515 15.0509C14.6247 15.7817 13.7602 16.361 12.808 16.7555C11.8559 17.1499 10.8349 17.3516 9.80426 17.3488C8.77327 17.3514 7.752 17.1495 6.7995 16.7549C5.84701 16.3603 4.98219 15.7808 4.25507 15.0499C1.19703 11.9909 1.19703 7.01251 4.25507 3.95349C4.84599 3.36324 5.5282 2.87211 6.27545 2.49901C6.16607 3.9104 6.36269 5.32876 6.85188 6.65717C7.34106 7.98558 8.11127 9.19272 9.10987 10.1961C10.111 11.1978 11.3178 11.9702 12.6468 12.4597C13.9758 12.9493 15.3952 13.1444 16.807 13.0315C16.4318 13.7775 15.9406 14.4591 15.3515 15.0509Z" fill="#FF5757"/>
</svg>
