<svg width="16" height="16" viewBox="0 0 16 16" fill="none" xmlns="http://www.w3.org/2000/svg">
<path d="M7.96933 15.3903C12.1716 15.3903 15.6645 11.9049 15.6645 7.69516C15.6645 3.49286 12.1639 0 7.96161 0C3.75222 0 0.27449 3.49286 0.27449 7.69516C0.27449 11.9049 3.75962 15.3903 7.96933 15.3903ZM5.60825 6.97831C5.15567 6.97831 4.77841 6.57852 4.77841 6.00523C4.77841 5.43934 5.15567 5.03955 5.60825 5.03955C6.06856 5.03955 6.45322 5.43934 6.45322 6.00523C6.45322 6.57852 6.06856 6.97831 5.60825 6.97831ZM10.1502 6.97831C9.68985 6.97831 9.31259 6.57852 9.31259 6.00523C9.31259 5.43934 9.68985 5.03955 10.1498 5.03955C10.6027 5.03955 10.9874 5.43934 10.9874 6.00523C10.9874 6.57852 10.6027 6.97831 10.1498 6.97831M7.86375 11.422C5.97746 11.422 4.80835 10.0868 4.80835 9.58886C4.80835 9.48328 4.87594 9.44529 4.95899 9.50581C5.50235 9.94358 6.49056 10.4412 7.86375 10.4412C9.23662 10.4412 10.1949 9.96612 10.7608 9.49808C10.8438 9.43789 10.9192 9.48328 10.9192 9.58886C10.9192 10.0868 9.74231 11.422 7.86375 11.422Z" fill="#FF5757"/>
</svg>
