<svg width="26" height="26" viewBox="0 0 26 26" fill="none" xmlns="http://www.w3.org/2000/svg">
<path d="M12.9489 25.6505C19.9527 25.6505 25.7741 19.8415 25.7741 12.8253C25.7741 5.82142 19.9398 0 12.936 0C5.92036 0 0.124146 5.82142 0.124146 12.8253C0.124146 19.8415 5.9327 25.6505 12.9489 25.6505ZM9.01374 11.6305C8.25944 11.6305 7.63068 10.9642 7.63068 10.0087C7.63068 9.06557 8.25944 8.39925 9.01374 8.39925C9.78092 8.39925 10.422 9.06557 10.422 10.0087C10.422 10.9642 9.78092 11.6305 9.01374 11.6305ZM16.5836 11.6305C15.8164 11.6305 15.1876 10.9642 15.1876 10.0087C15.1876 9.06557 15.8164 8.39925 16.583 8.39925C17.3379 8.39925 17.979 9.06557 17.979 10.0087C17.979 10.9642 17.3379 11.6305 16.583 11.6305M12.7729 19.0367C9.62909 19.0367 7.68057 16.8114 7.68057 15.9814C7.68057 15.8055 7.79323 15.7422 7.93165 15.843C8.83724 16.5726 10.4843 17.402 12.7729 17.402C15.061 17.402 16.6582 16.6102 17.6013 15.8301C17.7397 15.7298 17.8652 15.8055 17.8652 15.9814C17.8652 16.8114 15.9039 19.0367 12.7729 19.0367Z" fill="#FF5757"/>
</svg>
