<svg width="18" height="19" viewBox="0 0 18 19" fill="none" xmlns="http://www.w3.org/2000/svg">
<path d="M16.92 18.037C17.38 18.4883 18.09 17.7917 17.63 17.3502L13.88 13.6611C15.1958 12.2333 15.9229 10.3762 15.92 8.45129C15.92 4.14412 12.35 0.641479 7.96 0.641479C3.57 0.641479 0 4.14412 0 8.45129C0 12.7585 3.57 16.2611 7.96 16.2611C9.94 16.2611 11.77 15.5449 13.17 14.3577L16.92 18.037ZM0.999 8.45129C0.999 4.68374 4.129 1.62261 7.959 1.62261C11.799 1.62261 14.919 4.68374 14.919 8.45129C14.919 12.2188 11.799 15.28 7.959 15.28C4.129 15.28 0.999 12.2188 0.999 8.45129Z" fill="#F8F8F8"/>
</svg>
