<svg width="91" height="20" viewBox="0 0 91 20" fill="none" xmlns="http://www.w3.org/2000/svg">
<path d="M8.05176 9.07227C7.63249 8.95247 7.12337 8.88509 6.52441 8.87012C5.98535 8.87012 5.44629 8.9375 4.90723 9.07227C4.38314 9.19206 3.96387 9.40169 3.64941 9.70117V14.5078V14.5527V19H0.931641V6.33203H3.35742L3.64941 7.63477C3.87402 7.41016 4.10612 7.20801 4.3457 7.02832C4.60026 6.84863 4.89225 6.70638 5.22168 6.60156C5.55111 6.48177 5.94043 6.39193 6.38965 6.33203C6.83887 6.27214 7.3929 6.24219 8.05176 6.24219V9.07227ZM10.8594 6.78125V6.33203H13.5996V13.2275C13.5996 13.7516 13.6221 14.2458 13.667 14.71C13.7119 15.1592 13.8092 15.556 13.959 15.9004C14.1087 16.2448 14.3333 16.5218 14.6328 16.7314C14.9323 16.9411 15.3291 17.0459 15.8232 17.0459C15.973 17.0459 16.1826 17.0309 16.4521 17.001C16.7217 16.9561 16.9912 16.8887 17.2607 16.7988C17.5452 16.709 17.8073 16.5967 18.0469 16.4619C18.3014 16.3271 18.4886 16.1699 18.6084 15.9902V15.833V15.8105V10.7793V10.7568V6.33203H21.3486V19H18.9004L18.6084 17.6973C18.4287 17.862 18.2041 18.0267 17.9346 18.1914C17.665 18.3561 17.3656 18.5133 17.0361 18.6631C16.7217 18.7979 16.3923 18.9102 16.0479 19C15.7184 19.0749 15.389 19.1123 15.0596 19.1123C14.7002 19.1123 14.3783 19.0749 14.0938 19C13.8092 18.9401 13.5397 18.8428 13.2852 18.708C13.0456 18.5583 12.8135 18.3936 12.5889 18.2139C12.3643 18.0342 12.1396 17.832 11.915 17.6074C11.6605 17.3529 11.4583 17.0609 11.3086 16.7314C11.1589 16.387 11.0465 16.0352 10.9717 15.6758C10.9118 15.3014 10.8743 14.9271 10.8594 14.5527C10.8594 14.1784 10.8594 13.8115 10.8594 13.4521V6.75879V6.78125ZM24.9199 17.9893L26.0654 16.1699C26.3649 16.3796 26.7168 16.5742 27.1211 16.7539C27.5404 16.9336 28.0645 17.0234 28.6934 17.0234C29.5169 17.0234 30.1608 16.8962 30.625 16.6416C31.0892 16.387 31.3213 16.0127 31.3213 15.5186C31.3213 15.1592 31.1865 14.8747 30.917 14.665C30.6475 14.4404 30.3031 14.2533 29.8838 14.1035C29.4795 13.9388 29.0378 13.7891 28.5586 13.6543C28.0944 13.5046 27.6602 13.3249 27.2559 13.1152C26.4622 12.696 25.8633 12.2542 25.459 11.79C25.0697 11.3258 24.875 10.7119 24.875 9.94824C24.875 9.31934 25.0023 8.7653 25.2568 8.28613C25.5264 7.80697 25.8708 7.41016 26.29 7.0957C26.7093 6.76628 27.1885 6.51921 27.7275 6.35449C28.2666 6.18978 28.8132 6.10742 29.3672 6.10742C30.1159 6.10742 30.8047 6.18978 31.4336 6.35449C32.0625 6.50423 32.6689 6.76628 33.2529 7.14062L32.377 9.00488C31.9277 8.75033 31.4411 8.57812 30.917 8.48828C30.3929 8.38346 29.8763 8.33105 29.3672 8.33105C28.8132 8.33105 28.3714 8.45833 28.042 8.71289C27.7275 8.95247 27.5703 9.33431 27.5703 9.8584C27.5703 10.2627 27.7126 10.5846 27.9971 10.8242C28.2965 11.0488 28.6784 11.251 29.1426 11.4307C29.6068 11.6104 30.1009 11.79 30.625 11.9697C31.1491 12.1494 31.6357 12.3815 32.085 12.666C32.5492 12.9355 32.931 13.2799 33.2305 13.6992C33.5299 14.1185 33.6797 14.6576 33.6797 15.3164C33.6797 15.9603 33.5524 16.5218 33.2979 17.001C33.0433 17.4801 32.6989 17.877 32.2646 18.1914C31.8304 18.5059 31.3288 18.738 30.7598 18.8877C30.1908 19.0374 29.5843 19.1123 28.9404 19.1123C28.5511 19.1123 28.1917 19.0973 27.8623 19.0674C27.5329 19.0524 27.2109 19.0075 26.8965 18.9326C26.582 18.8577 26.2676 18.7454 25.9531 18.5957C25.6387 18.446 25.2943 18.2438 24.9199 17.9893ZM47.6953 19H44.9551V12.1045C44.9551 11.5954 44.9326 11.1087 44.8877 10.6445C44.8428 10.1803 44.738 9.76855 44.5732 9.40918C44.4085 9.0498 44.1839 8.77279 43.8994 8.57812C43.6149 8.36849 43.2181 8.26367 42.709 8.26367C42.5443 8.26367 42.3271 8.28613 42.0576 8.33105C41.8031 8.37598 41.5335 8.44336 41.249 8.5332C40.9795 8.62305 40.7174 8.73535 40.4629 8.87012C40.2233 9.00488 40.0436 9.16211 39.9238 9.3418V9.47656V9.52148V14.5078V14.5527V19H37.2061V1.54785H39.9238V7.6123C40.1035 7.44759 40.3281 7.28288 40.5977 7.11816C40.8822 6.93848 41.1891 6.78125 41.5186 6.64648C41.848 6.51172 42.1849 6.4069 42.5293 6.33203C42.8737 6.24219 43.2106 6.19727 43.54 6.19727C44.2139 6.19727 44.7829 6.33952 45.2471 6.62402C45.7113 6.90853 46.1755 7.27539 46.6396 7.72461C46.8942 7.97917 47.0889 8.27865 47.2236 8.62305C47.3734 8.95247 47.4782 9.30436 47.5381 9.67871C47.613 10.0381 47.6579 10.4049 47.6729 10.7793C47.6878 11.1536 47.6953 11.5205 47.6953 11.8799V18.5508V19Z" fill="#FF5757"/>
<path d="M53.5801 15.1367C53.5801 15.6458 53.6475 16.0501 53.7822 16.3496C53.917 16.6341 54.1042 16.8512 54.3438 17.001C54.5833 17.1357 54.8529 17.2256 55.1523 17.2705C55.4668 17.3154 55.8037 17.3379 56.1631 17.3379V19C55.9684 19.0299 55.7663 19.0524 55.5566 19.0674C55.3919 19.0824 55.1973 19.0898 54.9727 19.0898C54.748 19.1048 54.5234 19.1123 54.2988 19.1123C54.0742 19.1123 53.8496 19.1048 53.625 19.0898C53.4004 19.0749 53.1982 19.0524 53.0186 19.0225C52.5094 18.9176 52.1126 18.693 51.8281 18.3486C51.5436 18.0042 51.3265 17.6224 51.1768 17.2031C51.027 16.7689 50.9297 16.3496 50.8848 15.9453C50.8548 15.541 50.8398 15.2266 50.8398 15.002V14.7324V1.54785H53.5801V15.1367ZM61.7559 19H59.0156V6.33203H61.7559V19ZM62.0029 2.28906C62.0029 2.73828 61.8457 3.12012 61.5312 3.43457C61.2168 3.73405 60.835 3.88379 60.3857 3.88379C59.9365 3.88379 59.5547 3.72656 59.2402 3.41211C58.9408 3.09766 58.791 2.72331 58.791 2.28906C58.791 1.83984 58.9482 1.45801 59.2627 1.14355C59.5771 0.829102 59.9515 0.671875 60.3857 0.671875C60.835 0.671875 61.2168 0.829102 61.5312 1.14355C61.8457 1.45801 62.0029 1.83984 62.0029 2.28906ZM76.0635 19H73.3232V12.1045C73.3232 11.5954 73.3008 11.1087 73.2559 10.6445C73.2109 10.1803 73.1061 9.76855 72.9414 9.40918C72.7767 9.0498 72.5521 8.77279 72.2676 8.57812C71.9831 8.36849 71.5863 8.26367 71.0771 8.26367C70.9124 8.26367 70.6953 8.28613 70.4258 8.33105C70.1712 8.37598 69.9017 8.44336 69.6172 8.5332C69.3477 8.62305 69.0856 8.73535 68.8311 8.87012C68.5915 9.00488 68.4118 9.16211 68.292 9.3418V9.47656V9.52148V14.5078V14.5527V19H65.5742V6.33203H68L68.292 7.6123C68.4717 7.44759 68.6963 7.28288 68.9658 7.11816C69.2503 6.93848 69.5573 6.78125 69.8867 6.64648C70.2161 6.51172 70.5531 6.4069 70.8975 6.33203C71.2419 6.24219 71.5788 6.19727 71.9082 6.19727C72.582 6.19727 73.151 6.33952 73.6152 6.62402C74.0794 6.90853 74.5436 7.27539 75.0078 7.72461C75.2624 7.97917 75.457 8.27865 75.5918 8.62305C75.7415 8.95247 75.8464 9.30436 75.9062 9.67871C75.9811 10.0381 76.026 10.4049 76.041 10.7793C76.056 11.1536 76.0635 11.5205 76.0635 11.8799V18.5508V19ZM87.1592 19L82.5547 12.9355V19H79.8145V1.54785H82.5547V12.374L86.6201 6.33203H89.6748L85.2275 12.6436L90.2588 19H87.1592Z" fill="white"/>
</svg>
