<svg width="47" height="47" viewBox="0 0 47 47" fill="none" xmlns="http://www.w3.org/2000/svg">
<circle cx="23.5081" cy="23.5" r="23.5" fill="#FF5757"/>
<path d="M13.5831 32V17.5L10.7581 18.15V16.2L14.6331 14.5H16.3331V32H13.5831ZM26.8885 32.3C25.3052 32.3 23.9385 31.925 22.7885 31.175C21.6552 30.4083 20.7802 29.35 20.1635 28C19.5635 26.6333 19.2635 25.05 19.2635 23.25C19.2635 21.45 19.5635 19.875 20.1635 18.525C20.7802 17.1583 21.6552 16.1 22.7885 15.35C23.9385 14.5833 25.3052 14.2 26.8885 14.2C28.4719 14.2 29.8302 14.5833 30.9635 15.35C32.0969 16.1 32.9635 17.1583 33.5635 18.525C34.1802 19.875 34.4885 21.45 34.4885 23.25C34.4885 25.05 34.1802 26.6333 33.5635 28C32.9635 29.35 32.0969 30.4083 30.9635 31.175C29.8302 31.925 28.4719 32.3 26.8885 32.3ZM26.8885 29.925C27.8385 29.925 28.6802 29.6583 29.4135 29.125C30.1635 28.5917 30.7469 27.825 31.1635 26.825C31.5802 25.825 31.7885 24.6333 31.7885 23.25C31.7885 21.8667 31.5802 20.675 31.1635 19.675C30.7469 18.675 30.1635 17.9083 29.4135 17.375C28.6802 16.8417 27.8385 16.575 26.8885 16.575C25.9219 16.575 25.0719 16.8417 24.3385 17.375C23.6052 17.9083 23.0302 18.675 22.6135 19.675C22.1969 20.675 21.9885 21.8667 21.9885 23.25C21.9885 24.6333 22.1969 25.825 22.6135 26.825C23.0302 27.825 23.6052 28.5917 24.3385 29.125C25.0719 29.6583 25.9219 29.925 26.8885 29.925Z" fill="white"/>
</svg>
