<svg width="47" height="47" viewBox="0 0 47 47" fill="none" xmlns="http://www.w3.org/2000/svg">
<circle cx="23.5" cy="23.5" r="23.5" fill="#FF5757"/>
<path d="M23.2 32.3C21.9167 32.3 20.8333 32.0583 19.95 31.575C19.0667 31.0917 18.35 30.45 17.8 29.65C17.2667 28.85 16.8833 27.95 16.65 26.95C16.4167 25.95 16.3 24.925 16.3 23.875C16.3 21.9417 16.5667 20.25 17.1 18.8C17.65 17.35 18.4333 16.225 19.45 15.425C20.4667 14.6083 21.7 14.2 23.15 14.2C24.3 14.2 25.2833 14.425 26.1 14.875C26.9167 15.325 27.55 15.925 28 16.675C28.4667 17.425 28.75 18.2417 28.85 19.125H26.375C26.225 18.2583 25.8667 17.5917 25.3 17.125C24.7333 16.6583 24.0083 16.425 23.125 16.425C21.9083 16.425 20.9 17 20.1 18.15C19.3167 19.2833 18.9 21.0333 18.85 23.4C19.25 22.6667 19.8667 22.0417 20.7 21.525C21.55 21.0083 22.525 20.75 23.625 20.75C24.6083 20.75 25.525 20.9833 26.375 21.45C27.2417 21.9167 27.9417 22.575 28.475 23.425C29.025 24.2583 29.3 25.25 29.3 26.4C29.3 27.4167 29.05 28.375 28.55 29.275C28.05 30.175 27.3417 30.9083 26.425 31.475C25.525 32.025 24.45 32.3 23.2 32.3ZM23.05 30C23.75 30 24.375 29.85 24.925 29.55C25.475 29.25 25.9083 28.8417 26.225 28.325C26.5417 27.7917 26.7 27.1917 26.7 26.525C26.7 25.4583 26.35 24.6083 25.65 23.975C24.9667 23.3417 24.0917 23.025 23.025 23.025C22.325 23.025 21.6917 23.1833 21.125 23.5C20.575 23.8167 20.1417 24.2417 19.825 24.775C19.5083 25.2917 19.35 25.8667 19.35 26.5C19.35 27.1833 19.5083 27.7917 19.825 28.325C20.1583 28.8417 20.6 29.25 21.15 29.55C21.7167 29.85 22.35 30 23.05 30Z" fill="white"/>
</svg>
