<svg width="48" height="47" viewBox="0 0 48 47" fill="none" xmlns="http://www.w3.org/2000/svg">
<circle cx="24.0039" cy="23.5" r="23.5" fill="#FF5757"/>
<path d="M24.8789 32.3C23.7456 32.3 22.7122 32.1 21.7789 31.7C20.8622 31.2833 20.1289 30.6583 19.5789 29.825C19.0289 28.9917 18.7372 27.95 18.7039 26.7H21.3289C21.3622 27.6333 21.6789 28.425 22.2789 29.075C22.8956 29.7083 23.7622 30.025 24.8789 30.025C25.9456 30.025 26.7622 29.7333 27.3289 29.15C27.8956 28.55 28.1789 27.8083 28.1789 26.925C28.1789 25.8583 27.7956 25.0667 27.0289 24.55C26.2789 24.0333 25.3539 23.775 24.2539 23.775H22.9539V21.575H24.2789C25.2622 21.575 26.0539 21.3417 26.6539 20.875C27.2706 20.4083 27.5789 19.75 27.5789 18.9C27.5789 18.1833 27.3372 17.6 26.8539 17.15C26.3872 16.7 25.7206 16.475 24.8539 16.475C23.9539 16.475 23.2456 16.7417 22.7289 17.275C22.2122 17.7917 21.9289 18.4417 21.8789 19.225H19.2539C19.2872 18.2083 19.5372 17.325 20.0039 16.575C20.4872 15.825 21.1456 15.2417 21.9789 14.825C22.8122 14.4083 23.7706 14.2 24.8539 14.2C26.0206 14.2 26.9956 14.4083 27.7789 14.825C28.5789 15.225 29.1789 15.775 29.5789 16.475C29.9956 17.1583 30.2039 17.9083 30.2039 18.725C30.2039 19.6583 29.9456 20.475 29.4289 21.175C28.9122 21.875 28.2206 22.3417 27.3539 22.575C28.3539 22.7917 29.1789 23.2833 29.8289 24.05C30.4789 24.8 30.8039 25.775 30.8039 26.975C30.8039 27.9417 30.5789 28.8333 30.1289 29.65C29.6789 30.45 29.0122 31.0917 28.1289 31.575C27.2456 32.0583 26.1622 32.3 24.8789 32.3Z" fill="white"/>
</svg>
