<svg width="48" height="47" viewBox="0 0 48 47" fill="none" xmlns="http://www.w3.org/2000/svg">
<circle cx="24.0039" cy="23.5" r="23.5" fill="#FF5757"/>
<path d="M23.2539 32.3C22.0872 32.3 21.0289 32.0917 20.0789 31.675C19.1456 31.2417 18.3956 30.6417 17.8289 29.875C17.2789 29.1083 17.0039 28.2083 17.0039 27.175C17.0039 26.125 17.2956 25.1833 17.8789 24.35C18.4789 23.5167 19.2706 22.95 20.2539 22.65C19.3706 22.3 18.6872 21.7917 18.2039 21.125C17.7206 20.4417 17.4789 19.6917 17.4789 18.875C17.4789 18.025 17.7039 17.25 18.1539 16.55C18.6039 15.8333 19.2539 15.2667 20.1039 14.85C20.9706 14.4167 22.0206 14.2 23.2539 14.2C24.4872 14.2 25.5289 14.4167 26.3789 14.85C27.2456 15.2667 27.9039 15.8333 28.3539 16.55C28.8039 17.25 29.0289 18.025 29.0289 18.875C29.0289 19.675 28.7789 20.425 28.2789 21.125C27.7956 21.8083 27.1122 22.3167 26.2289 22.65C27.2122 22.9667 27.9956 23.5417 28.5789 24.375C29.1789 25.1917 29.4789 26.125 29.4789 27.175C29.4789 28.2083 29.2039 29.1083 28.6539 29.875C28.1039 30.6417 27.3539 31.2417 26.4039 31.675C25.4706 32.0917 24.4206 32.3 23.2539 32.3ZM23.2539 21.8C24.2206 21.8 24.9789 21.55 25.5289 21.05C26.0956 20.55 26.3789 19.9083 26.3789 19.125C26.3789 18.2417 26.1039 17.5667 25.5539 17.1C25.0039 16.6333 24.2372 16.4 23.2539 16.4C22.2706 16.4 21.5039 16.6333 20.9539 17.1C20.4039 17.5667 20.1289 18.2417 20.1289 19.125C20.1289 19.9083 20.4039 20.55 20.9539 21.05C21.5039 21.55 22.2706 21.8 23.2539 21.8ZM23.2539 30.05C24.4539 30.05 25.3539 29.7667 25.9539 29.2C26.5539 28.6167 26.8539 27.875 26.8539 26.975C26.8539 25.975 26.5289 25.2083 25.8789 24.675C25.2456 24.125 24.3706 23.85 23.2539 23.85C22.1372 23.85 21.2539 24.125 20.6039 24.675C19.9539 25.2083 19.6289 25.975 19.6289 26.975C19.6289 27.875 19.9289 28.6167 20.5289 29.2C21.1456 29.7667 22.0539 30.05 23.2539 30.05Z" fill="white"/>
</svg>
