<svg width="47" height="47" viewBox="0 0 47 47" fill="none" xmlns="http://www.w3.org/2000/svg">
<circle cx="23.5079" cy="23.5" r="23.5" fill="#FF5757"/>
<path d="M22.8829 32.3C21.6496 32.3 20.5829 32.0833 19.6829 31.65C18.7829 31.2 18.0663 30.5917 17.5329 29.825C17.0163 29.0417 16.6996 28.1583 16.5829 27.175H19.1829C19.3496 28.0083 19.7663 28.7 20.4329 29.25C21.0996 29.7833 21.9246 30.05 22.9079 30.05C23.6413 30.05 24.2746 29.875 24.8079 29.525C25.3413 29.1583 25.7579 28.675 26.0579 28.075C26.3579 27.475 26.5079 26.8 26.5079 26.05C26.5079 24.8667 26.1746 23.925 25.5079 23.225C24.8413 22.5083 23.9996 22.15 22.9829 22.15C22.1163 22.15 21.3746 22.3583 20.7579 22.775C20.1413 23.175 19.6913 23.6833 19.4079 24.3H16.8829L18.3829 14.5H27.8329V16.825H20.3829L19.4829 21.5C19.8663 21.0667 20.3913 20.7083 21.0579 20.425C21.7413 20.125 22.5079 19.975 23.3579 19.975C24.5413 19.975 25.5579 20.25 26.4079 20.8C27.2579 21.3333 27.9079 22.0583 28.3579 22.975C28.8246 23.8917 29.0579 24.9083 29.0579 26.025C29.0579 27.1917 28.8079 28.25 28.3079 29.2C27.8079 30.15 27.0913 30.9083 26.1579 31.475C25.2413 32.025 24.1496 32.3 22.8829 32.3Z" fill="white"/>
</svg>
