<svg width="48" height="47" viewBox="0 0 48 47" fill="none" xmlns="http://www.w3.org/2000/svg">
<circle cx="24.252" cy="23.5" r="23.5" fill="#FF5757"/>
<path d="M19.177 32V30.1C20.3103 29.2 21.3936 28.2917 22.427 27.375C23.4603 26.4583 24.377 25.5583 25.177 24.675C25.9936 23.775 26.6353 22.9 27.102 22.05C27.5686 21.1833 27.802 20.35 27.802 19.55C27.802 19.0167 27.7103 18.5167 27.527 18.05C27.3436 17.5667 27.0436 17.1833 26.627 16.9C26.2103 16.6 25.652 16.45 24.952 16.45C23.902 16.45 23.1103 16.7833 22.577 17.45C22.0603 18.1167 21.8103 18.9167 21.827 19.85H19.252C19.2686 18.6167 19.527 17.5833 20.027 16.75C20.5436 15.9167 21.227 15.2833 22.077 14.85C22.9436 14.4167 23.9186 14.2 25.002 14.2C26.652 14.2 27.9686 14.6667 28.952 15.6C29.952 16.5167 30.452 17.8 30.452 19.45C30.452 20.4333 30.2103 21.4083 29.727 22.375C29.2603 23.3417 28.6436 24.275 27.877 25.175C27.127 26.0583 26.3186 26.8917 25.452 27.675C24.5853 28.4583 23.7603 29.1667 22.977 29.8H30.977V32H19.177Z" fill="white"/>
</svg>
