<svg width="48" height="47" viewBox="0 0 48 47" fill="none" xmlns="http://www.w3.org/2000/svg">
<circle cx="23.756" cy="23.5" r="23.5" fill="#FF5757"/>
<path d="M22.906 32.3C21.756 32.3 20.7726 32.075 19.956 31.625C19.1393 31.175 18.4976 30.575 18.031 29.825C17.581 29.075 17.306 28.2583 17.206 27.375H19.681C19.831 28.2417 20.1893 28.9083 20.756 29.375C21.3226 29.8417 22.0476 30.075 22.931 30.075C24.1476 30.075 25.1476 29.5083 25.931 28.375C26.731 27.225 27.156 25.4667 27.206 23.1C26.806 23.8333 26.181 24.4583 25.331 24.975C24.4976 25.4917 23.531 25.75 22.431 25.75C21.4476 25.75 20.5226 25.5167 19.656 25.05C18.7893 24.5833 18.0893 23.9333 17.556 23.1C17.0226 22.25 16.756 21.25 16.756 20.1C16.756 19.0833 17.006 18.125 17.506 17.225C18.006 16.325 18.706 15.6 19.606 15.05C20.5226 14.4833 21.606 14.2 22.856 14.2C24.1393 14.2 25.2226 14.4417 26.106 14.925C26.9893 15.4083 27.6976 16.05 28.231 16.85C28.7643 17.65 29.1476 18.55 29.381 19.55C29.631 20.55 29.756 21.575 29.756 22.625C29.756 24.5583 29.481 26.25 28.931 27.7C28.3976 29.15 27.6226 30.2833 26.606 31.1C25.5893 31.9 24.356 32.3 22.906 32.3ZM23.031 23.475C23.731 23.475 24.356 23.3167 24.906 23C25.456 22.6833 25.8893 22.2667 26.206 21.75C26.5393 21.2167 26.706 20.6333 26.706 20C26.706 19.3167 26.5393 18.7167 26.206 18.2C25.8893 17.6667 25.4476 17.25 24.881 16.95C24.331 16.65 23.706 16.5 23.006 16.5C22.306 16.5 21.681 16.65 21.131 16.95C20.581 17.25 20.1393 17.6667 19.806 18.2C19.4893 18.7167 19.331 19.3083 19.331 19.975C19.331 21.0417 19.681 21.8917 20.381 22.525C21.081 23.1583 21.9643 23.475 23.031 23.475Z" fill="white"/>
</svg>
