<svg width="104" height="19" viewBox="0 0 104 19" fill="none" xmlns="http://www.w3.org/2000/svg">
<path d="M0.507891 14V-9.53674e-07H3.00789L7.74789 9.32L12.4679 -9.53674e-07H14.9679V14H12.8479V3.66L8.56789 12H6.92789L2.62789 3.68V14H0.507891ZM21.0926 14.24C20.2526 14.24 19.5592 14.1 19.0126 13.82C18.4659 13.54 18.0592 13.1733 17.7926 12.72C17.5259 12.2533 17.3926 11.7467 17.3926 11.2C17.3926 10.24 17.7659 9.48 18.5126 8.92C19.2592 8.36 20.3259 8.08 21.7126 8.08H24.3126V7.9C24.3126 7.12667 24.0992 6.54667 23.6726 6.16C23.2592 5.77333 22.7192 5.58 22.0526 5.58C21.4659 5.58 20.9526 5.72667 20.5126 6.02C20.0859 6.3 19.8259 6.72 19.7326 7.28H17.6126C17.6792 6.56 17.9192 5.94667 18.3326 5.44C18.7592 4.92 19.2926 4.52667 19.9326 4.26C20.5859 3.98 21.2992 3.84 22.0726 3.84C23.4592 3.84 24.5326 4.20667 25.2926 4.94C26.0526 5.66 26.4326 6.64667 26.4326 7.9V14H24.5926L24.4126 12.3C24.1326 12.8467 23.7259 13.3067 23.1926 13.68C22.6592 14.0533 21.9592 14.24 21.0926 14.24ZM21.5126 12.52C22.0859 12.52 22.5659 12.3867 22.9526 12.12C23.3526 11.84 23.6592 11.4733 23.8726 11.02C24.0992 10.5667 24.2392 10.0667 24.2926 9.52H21.9326C21.0926 9.52 20.4926 9.66667 20.1326 9.96C19.7859 10.2533 19.6126 10.62 19.6126 11.06C19.6126 11.5133 19.7792 11.8733 20.1126 12.14C20.4592 12.3933 20.9259 12.52 21.5126 12.52ZM28.9045 14V4.08H30.7845L30.9445 5.82C31.2511 5.20667 31.6978 4.72667 32.2845 4.38C32.8845 4.02 33.5711 3.84 34.3445 3.84C35.5445 3.84 36.4845 4.21333 37.1645 4.96C37.8578 5.70667 38.2045 6.82 38.2045 8.3V14H36.1045V8.52C36.1045 6.6 35.3178 5.64 33.7445 5.64C32.9578 5.64 32.3045 5.92 31.7845 6.48C31.2778 7.04 31.0245 7.84 31.0245 8.88V14H28.9045ZM41.5488 18.4L43.9288 13.18H43.3488L39.4288 4.08H41.7288L44.7688 11.42L47.9488 4.08H50.1888L43.7888 18.4H41.5488ZM57.0509 14V-9.53674e-07H59.5509L64.2909 9.32L69.0109 -9.53674e-07H71.5109V14H69.3909V3.66L65.1109 12H63.4709L59.1709 3.68V14H57.0509ZM78.9155 14.24C77.9689 14.24 77.1155 14.0267 76.3555 13.6C75.6089 13.16 75.0155 12.5533 74.5755 11.78C74.1355 10.9933 73.9155 10.08 73.9155 9.04C73.9155 8 74.1355 7.09333 74.5755 6.32C75.0289 5.53333 75.6355 4.92667 76.3955 4.5C77.1555 4.06 78.0022 3.84 78.9355 3.84C79.8822 3.84 80.7289 4.06 81.4755 4.5C82.2355 4.92667 82.8355 5.53333 83.2755 6.32C83.7289 7.09333 83.9555 8 83.9555 9.04C83.9555 10.08 83.7289 10.9933 83.2755 11.78C82.8355 12.5533 82.2355 13.16 81.4755 13.6C80.7155 14.0267 79.8622 14.24 78.9155 14.24ZM78.9155 12.42C79.4222 12.42 79.8889 12.2933 80.3155 12.04C80.7555 11.7867 81.1089 11.4133 81.3755 10.92C81.6422 10.4133 81.7755 9.78667 81.7755 9.04C81.7755 8.29333 81.6422 7.67333 81.3755 7.18C81.1222 6.67333 80.7755 6.29333 80.3355 6.04C79.9089 5.78667 79.4422 5.66 78.9355 5.66C78.4289 5.66 77.9555 5.78667 77.5155 6.04C77.0889 6.29333 76.7422 6.67333 76.4755 7.18C76.2089 7.67333 76.0755 8.29333 76.0755 9.04C76.0755 9.78667 76.2089 10.4133 76.4755 10.92C76.7422 11.4133 77.0889 11.7867 77.5155 12.04C77.9422 12.2933 78.4089 12.42 78.9155 12.42ZM86.2482 14V4.08H88.1482L88.3282 5.96C88.6749 5.30667 89.1549 4.79333 89.7682 4.42C90.3949 4.03333 91.1482 3.84 92.0282 3.84V6.06H91.4482C90.8615 6.06 90.3349 6.16 89.8682 6.36C89.4149 6.54667 89.0482 6.87333 88.7682 7.34C88.5015 7.79333 88.3682 8.42667 88.3682 9.24V14H86.2482ZM98.2124 14.24C97.2391 14.24 96.3724 14.0267 95.6124 13.6C94.8658 13.16 94.2791 12.5533 93.8524 11.78C93.4258 11.0067 93.2124 10.1067 93.2124 9.08C93.2124 8.04 93.4191 7.12667 93.8324 6.34C94.2591 5.55333 94.8458 4.94 95.5924 4.5C96.3524 4.06 97.2324 3.84 98.2324 3.84C99.2058 3.84 100.052 4.06 100.772 4.5C101.492 4.92667 102.052 5.5 102.452 6.22C102.852 6.94 103.052 7.73333 103.052 8.6C103.052 8.73333 103.046 8.88 103.032 9.04C103.032 9.18667 103.026 9.35333 103.012 9.54H95.2924C95.3591 10.5 95.6724 11.2333 96.2324 11.74C96.8058 12.2333 97.4658 12.48 98.2124 12.48C98.8124 12.48 99.3124 12.3467 99.7124 12.08C100.126 11.8 100.432 11.4267 100.632 10.96H102.752C102.486 11.8933 101.952 12.6733 101.152 13.3C100.366 13.9267 99.3858 14.24 98.2124 14.24ZM98.2124 5.58C97.5058 5.58 96.8791 5.79333 96.3324 6.22C95.7858 6.63333 95.4524 7.26 95.3324 8.1H100.932C100.892 7.32667 100.619 6.71333 100.112 6.26C99.6058 5.80667 98.9724 5.58 98.2124 5.58Z" fill="white"/>
</svg>
