<svg width="21" height="22" viewBox="0 0 21 22" fill="none" xmlns="http://www.w3.org/2000/svg">
<path d="M18.0807 10.6666C18.0807 10.4251 18.0702 10.1941 18.0492 9.95263L20.0022 8.47213C20.4222 8.15713 20.5377 7.56913 20.2752 7.10713L18.3117 3.71563C18.1858 3.49322 17.9821 3.32518 17.7399 3.24378C17.4976 3.16238 17.2338 3.17336 16.9992 3.27463L14.7417 4.23013C14.3532 3.95713 13.9437 3.71563 13.5132 3.51613L13.2087 1.09063C13.1457 0.565626 12.6942 0.166626 12.1692 0.166626H8.25268C7.71718 0.166626 7.26568 0.565626 7.20268 1.09063L6.89818 3.51613C6.46768 3.71563 6.05818 3.95713 5.66968 4.23013L3.41218 3.27463C2.92918 3.06463 2.36218 3.25363 2.09968 3.71563L0.136179 7.11763C-0.126321 7.57963 -0.0108214 8.15713 0.409179 8.48263L2.36218 9.96313C2.31865 10.4346 2.31865 10.9091 2.36218 11.3806L0.409179 12.8611C-0.0108214 13.1761 -0.126321 13.7641 0.136179 14.2261L2.09968 17.6176C2.36218 18.0796 2.92918 18.2686 3.41218 18.0586L5.66968 17.1031C6.05818 17.3761 6.46768 17.6176 6.89818 17.8171L7.20268 20.2426C7.26568 20.7676 7.71718 21.1666 8.24218 21.1666H12.1587C12.6837 21.1666 13.1352 20.7676 13.1982 20.2426L13.5027 17.8171C13.9332 17.6176 14.3427 17.3761 14.7312 17.1031L16.9887 18.0586C17.4717 18.2686 18.0387 18.0796 18.3012 17.6176L20.2647 14.2261C20.5272 13.7641 20.4117 13.1866 19.9917 12.8611L18.0387 11.3806C18.0702 11.1391 18.0807 10.9081 18.0807 10.6666ZM10.2477 14.3416C8.22118 14.3416 6.57268 12.6931 6.57268 10.6666C6.57268 8.64013 8.22118 6.99163 10.2477 6.99163C12.2742 6.99163 13.9227 8.64013 13.9227 10.6666C13.9227 12.6931 12.2742 14.3416 10.2477 14.3416Z" fill="#FF5757"/>
</svg>
