<svg width="30" height="17" viewBox="0 0 30 17" fill="none" xmlns="http://www.w3.org/2000/svg">
<path d="M28.75 0H1.25C0.559644 0 0 0.559644 0 1.25C0 1.94036 0.559644 2.5 1.25 2.5H28.75C29.4404 2.5 30 1.94036 30 1.25C30 0.559644 29.4404 0 28.75 0Z" fill="white"/>
<path d="M23.75 7.08337H1.25C0.559644 7.08337 0 7.64302 0 8.33337C0 9.02373 0.559644 9.58337 1.25 9.58337H23.75C24.4404 9.58337 25 9.02373 25 8.33337C25 7.64302 24.4404 7.08337 23.75 7.08337Z" fill="white"/>
<path d="M28.75 14.1633H1.25C0.559644 14.1633 0 14.723 0 15.4133C0 16.1037 0.559644 16.6633 1.25 16.6633H28.75C29.4404 16.6633 30 16.1037 30 15.4133C30 14.723 29.4404 14.1633 28.75 14.1633Z" fill="white"/>
</svg>
