<svg width="29" height="21" viewBox="0 0 29 21" fill="none" xmlns="http://www.w3.org/2000/svg">
<path d="M28.0684 9.99363C26.9657 7.14142 25.0515 4.67483 22.5622 2.89871C20.073 1.12259 17.1179 0.11479 14.0621 -0.00012207C11.0063 0.11479 8.05122 1.12259 5.56198 2.89871C3.07274 4.67483 1.1585 7.14142 0.0558512 9.99363C-0.0186171 10.1996 -0.0186171 10.4252 0.0558512 10.6311C1.1585 13.4833 3.07274 15.9499 5.56198 17.726C8.05122 19.5022 11.0063 20.51 14.0621 20.6249C17.1179 20.51 20.073 19.5022 22.5622 17.726C25.0515 15.9499 26.9657 13.4833 28.0684 10.6311C28.1428 10.4252 28.1428 10.1996 28.0684 9.99363ZM14.0621 18.7499C9.09335 18.7499 3.84335 15.0655 1.94023 10.3124C3.84335 5.55925 9.09335 1.87488 14.0621 1.87488C19.0309 1.87488 24.2809 5.55925 26.184 10.3124C24.2809 15.0655 19.0309 18.7499 14.0621 18.7499Z" fill="#FF5757"/>
<path d="M13.6871 16.3124C16.7937 16.3124 19.3121 13.794 19.3121 10.6874C19.3121 9.34363 18.841 8.10993 18.0548 7.14249C18.3752 7.61983 18.5621 8.19427 18.5621 8.81238C18.5621 10.4692 17.219 11.8124 15.5621 11.8124C13.9053 11.8124 12.5621 10.4692 12.5621 8.81238C12.5621 7.15552 13.9053 5.81238 15.5621 5.81238C16.1802 5.81238 16.7547 5.99931 17.232 6.31972C16.2646 5.53356 15.0309 5.06238 13.6871 5.06238C10.5805 5.06238 8.06213 7.58078 8.06213 10.6874C8.06213 13.794 10.5805 16.3124 13.6871 16.3124Z" fill="#FF5757"/>
</svg>
