<svg width="17" height="14" viewBox="0 0 17 14" fill="none" xmlns="http://www.w3.org/2000/svg">
<path d="M16.841 6.79618C16.1794 5.08485 15.0309 3.6049 13.5373 2.53923C12.0438 1.47355 10.2707 0.868874 8.43726 0.799927C6.6038 0.868874 4.83073 1.47355 3.33719 2.53923C1.84364 3.6049 0.695101 5.08485 0.0335107 6.79618C-0.0111702 6.91976 -0.0111702 7.05509 0.0335107 7.17868C0.695101 8.89 1.84364 10.37 3.33719 11.4356C4.83073 12.5013 6.6038 13.106 8.43726 13.1749C10.2707 13.106 12.0438 12.5013 13.5373 11.4356C15.0309 10.37 16.1794 8.89 16.841 7.17868C16.8857 7.05509 16.8857 6.91976 16.841 6.79618ZM8.43726 12.0499C5.45601 12.0499 2.30601 9.8393 1.16414 6.98743C2.30601 4.13555 5.45601 1.92493 8.43726 1.92493C11.4185 1.92493 14.5685 4.13555 15.7104 6.98743C14.5685 9.8393 11.4185 12.0499 8.43726 12.0499Z" fill="#FF5757"/>
<path d="M8.21226 10.5874C10.0762 10.5874 11.5873 9.07636 11.5873 7.2124C11.5873 6.40615 11.3046 5.66593 10.8329 5.08547C11.0251 5.37187 11.1373 5.71654 11.1373 6.0874C11.1373 7.08152 10.3314 7.8874 9.33726 7.8874C8.34315 7.8874 7.53726 7.08152 7.53726 6.0874C7.53726 5.09329 8.34315 4.2874 9.33726 4.2874C9.70812 4.2874 10.0528 4.39956 10.3392 4.59181C9.75873 4.12011 9.01851 3.8374 8.21226 3.8374C6.3483 3.8374 4.83726 5.34844 4.83726 7.2124C4.83726 9.07636 6.3483 10.5874 8.21226 10.5874Z" fill="#FF5757"/>
</svg>
